<svg width="570" height="395" viewBox="0 0 570 395" fill="none" xmlns="http://www.w3.org/2000/svg">
<g clip-path="url(#clip0)">
<path d="M459.02 235.605L452.304 244.769C451.394 246.011 450.072 246.888 448.575 247.244C447.077 247.6 445.502 247.411 444.131 246.711C443.122 246.196 442.265 245.425 441.647 244.475C441.028 243.525 440.669 242.429 440.605 241.297C440.542 240.165 440.776 239.036 441.284 238.022C441.793 237.009 442.558 236.147 443.503 235.522L452.067 229.857L476.554 205.352L479.275 196.578H497.716L488.042 217.453L459.02 235.605Z" fill="#FFB8B8"/>
<path d="M257.165 235.074C256.313 235.075 255.496 235.414 254.893 236.017C254.29 236.621 253.951 237.439 253.95 238.292V390.83C253.951 391.683 254.29 392.501 254.893 393.105C255.496 393.708 256.313 394.047 257.165 394.048H462.977C463.829 394.047 464.646 393.708 465.249 393.105C465.852 392.501 466.191 391.683 466.192 390.83V238.292C466.191 237.439 465.852 236.621 465.249 236.017C464.646 235.414 463.829 235.075 462.977 235.074H257.165Z" fill="#E6E6E6"/>
<path d="M262.889 385.343H457.253V243.78H262.889V385.343Z" fill="white"/>
<path d="M429.854 284.311H312.799C311.69 284.311 310.627 284.752 309.843 285.536C309.059 286.321 308.618 287.385 308.618 288.494C308.618 289.604 309.059 290.668 309.843 291.453C310.627 292.237 311.69 292.678 312.799 292.678H429.854C430.962 292.678 432.026 292.237 432.81 291.453C433.594 290.668 434.034 289.604 434.034 288.494C434.034 287.385 433.594 286.321 432.81 285.536C432.026 284.752 430.962 284.311 429.854 284.311Z" fill="#E6E6E6"/>
<path d="M312.799 310.056C311.69 310.056 310.627 310.496 309.843 311.281C309.059 312.066 308.618 313.13 308.618 314.239C308.618 315.349 309.059 316.413 309.843 317.197C310.627 317.982 311.69 318.423 312.799 318.423H429.854C430.962 318.423 432.026 317.982 432.81 317.197C433.594 316.413 434.034 315.349 434.034 314.239C434.034 313.13 433.594 312.066 432.81 311.281C432.026 310.496 430.962 310.056 429.854 310.056H312.799Z" fill="#E6E6E6"/>
<path d="M312.799 335.801C311.691 335.802 310.629 336.243 309.846 337.028C309.063 337.812 308.624 338.875 308.624 339.984C308.624 341.093 309.063 342.156 309.846 342.94C310.629 343.725 311.691 344.166 312.799 344.168H429.854C430.962 344.166 432.023 343.725 432.806 342.94C433.589 342.156 434.029 341.093 434.029 339.984C434.029 338.875 433.589 337.812 432.806 337.028C432.023 336.243 430.962 335.802 429.854 335.801H312.799Z" fill="#E6E6E6"/>
<path d="M290.61 293.965C293.451 293.965 295.755 291.66 295.755 288.816C295.755 285.973 293.451 283.667 290.61 283.667C287.768 283.667 285.464 285.973 285.464 288.816C285.464 291.66 287.768 293.965 290.61 293.965Z" fill="#EDAD00"/>
<path d="M290.61 319.71C293.451 319.71 295.755 317.405 295.755 314.561C295.755 311.717 293.451 309.412 290.61 309.412C287.768 309.412 285.464 311.717 285.464 314.561C285.464 317.405 287.768 319.71 290.61 319.71Z" fill="#E6E6E6"/>
<path d="M290.61 345.455C293.451 345.455 295.755 343.15 295.755 340.306C295.755 337.462 293.451 335.157 290.61 335.157C287.768 335.157 285.464 337.462 285.464 340.306C285.464 343.15 287.768 345.455 290.61 345.455Z" fill="#E6E6E6"/>
<path d="M383.225 288.494C383.225 289.604 382.784 290.668 382 291.453C381.216 292.237 380.153 292.678 379.044 292.678H312.95C311.917 292.693 310.914 292.334 310.124 291.668C309.335 291.001 308.813 290.072 308.655 289.05C308.577 288.459 308.626 287.859 308.798 287.288C308.971 286.718 309.263 286.19 309.655 285.742C310.047 285.293 310.53 284.934 311.073 284.687C311.615 284.44 312.203 284.312 312.799 284.311H379.044C379.593 284.311 380.137 284.419 380.644 284.629C381.151 284.839 381.612 285.148 382 285.536C382.389 285.925 382.697 286.386 382.907 286.893C383.117 287.401 383.225 287.945 383.225 288.494Z" fill="#EDAD00"/>
<path d="M360.071 217.052C369.306 217.052 376.793 209.56 376.793 200.318C376.793 191.076 369.306 183.584 360.071 183.584C350.835 183.584 343.349 191.076 343.349 200.318C343.349 209.56 350.835 217.052 360.071 217.052Z" fill="#E6E6E6"/>
<path d="M360.071 208.685C364.689 208.685 368.432 204.939 368.432 200.318C368.432 195.697 364.689 191.951 360.071 191.951C355.453 191.951 351.71 195.697 351.71 200.318C351.71 204.939 355.453 208.685 360.071 208.685Z" fill="white"/>
<path d="M546.691 368.719L538.227 372.652L525.364 348.193C517.423 336.019 512.239 321.43 508.6 305.49L521.901 306.397C529.821 317.708 535.689 329.049 537.58 340.447L546.691 368.719Z" fill="#FFB8B8"/>
<path d="M524.622 309.423H507.693V280.077L521.297 277.657L524.622 309.423Z" fill="#2F2E41"/>
<path d="M502.866 198.723C494.618 197.149 486.179 196.831 477.835 197.779L482.728 173.359C483.197 171.019 484.387 168.884 486.13 167.254C487.874 165.625 490.083 164.583 492.449 164.274C494.164 164.05 495.908 164.22 497.549 164.769C499.19 165.318 500.684 166.234 501.92 167.446C503.155 168.658 504.099 170.135 504.68 171.766C505.262 173.396 505.465 175.138 505.276 176.859L502.866 198.723Z" fill="#EDAD00"/>
<path d="M490.914 148.627C498.761 148.627 505.123 142.261 505.123 134.408C505.123 126.555 498.761 120.189 490.914 120.189C483.067 120.189 476.705 126.555 476.705 134.408C476.705 142.261 483.067 148.627 490.914 148.627Z" fill="#FFB8B8"/>
<path d="M512.832 150.896L494.088 164.207L489.1 140.458L503.158 134.862C503.727 141.088 507.088 146.387 512.832 150.896Z" fill="#FFB8B8"/>
<path d="M505.123 132.895C504.072 130.728 502.756 132.232 501.587 134.875L499.911 128.164L497.899 127.493L496.558 122.124C490.406 120.654 485.469 123.73 479.123 127.147L476.705 132.895C475.739 130.921 475.231 128.755 475.219 126.557C475.208 124.359 475.692 122.188 476.636 120.203C477.581 118.219 478.961 116.475 480.674 115.099C482.387 113.724 484.388 112.753 486.528 112.26C487.581 112.023 488.656 111.899 489.735 111.888C491.788 111.867 493.824 112.261 495.721 113.047C497.618 113.834 499.337 114.996 500.774 116.464C502.21 117.932 503.335 119.675 504.082 121.589C504.828 123.504 505.179 125.549 505.115 127.603L505.123 132.895Z" fill="#2F2E41"/>
<path d="M549.146 380.32L520.222 389.761C519.241 389.971 518.218 389.839 517.323 389.388C516.427 388.936 515.713 388.192 515.298 387.278C514.87 386.335 514.789 385.271 515.067 384.273C515.346 383.275 515.968 382.408 516.822 381.823C522.527 377.915 527.073 373.746 529.157 369.022C531.084 361.188 533.263 361.17 535.629 367.015C542.165 370.884 541.109 367.785 545.18 362.971L551.455 374.858C551.72 375.36 551.87 375.915 551.895 376.482C551.919 377.049 551.817 377.615 551.596 378.138C551.375 378.661 551.04 379.128 550.616 379.505C550.193 379.883 549.69 380.161 549.146 380.32Z" fill="#2F2E41"/>
<path d="M480.786 387.174L471.112 382.938L474.58 358.137L481.391 309.423L499.832 311.843C499.435 328.759 495.236 345.369 487.546 360.439L480.786 387.174Z" fill="#FFB8B8"/>
<path d="M512.227 316.986L480.182 310.633L488.646 266.161L487.135 254.059H529.157C527.624 269.726 520.312 292.857 512.227 316.986Z" fill="#2F2E41"/>
<path d="M530.669 258.295C515.157 254.366 499.899 253.81 485.019 258.295C482.236 229.592 481.47 202.221 483.905 176.966C484.485 170.85 487.438 165.206 492.13 161.244L509.809 146.358L522.936 152.926C524.63 153.774 526.061 155.069 527.074 156.672C528.087 158.274 528.643 160.123 528.682 162.019C531.548 200.203 533.745 236.539 530.669 258.295Z" fill="#EDAD00"/>
<path d="M546.087 253.454L548.729 262.711C549.004 263.674 549.072 264.684 548.928 265.675C548.783 266.666 548.43 267.616 547.892 268.46C547.353 269.304 546.642 270.025 545.804 270.573C544.967 271.122 544.023 271.486 543.034 271.643C541.948 271.814 540.837 271.73 539.789 271.397C538.742 271.063 537.786 270.49 536.998 269.722C536.211 268.954 535.613 268.013 535.252 266.974C534.892 265.934 534.779 264.825 534.922 263.734L536.11 254.664L529.762 208.679L521.297 190.527L538.227 182.964L545.18 205.654L546.087 253.454Z" fill="#FFB8B8"/>
<path d="M477.702 394.869L448.076 387.946C447.129 387.617 446.322 386.974 445.79 386.123C445.258 385.273 445.032 384.266 445.15 383.269C445.273 382.24 445.754 381.288 446.509 380.579C447.264 379.87 448.245 379.451 449.279 379.394C456.181 379.009 462.228 377.801 466.457 374.841C472.161 369.14 474.034 370.254 473.031 376.48C476.618 383.178 477.319 379.98 483.294 377.974L482.506 391.395C482.473 391.962 482.314 392.514 482.041 393.012C481.768 393.509 481.388 393.94 480.928 394.273C480.468 394.605 479.94 394.831 479.382 394.935C478.824 395.038 478.251 395.015 477.702 394.869Z" fill="#2F2E41"/>
<path d="M540.947 185.082C533.789 185.672 525.98 189.822 517.971 195.066L511.828 170.93C511.239 168.617 511.389 166.177 512.257 163.953C513.124 161.73 514.666 159.834 516.665 158.532C518.115 157.587 519.761 156.985 521.478 156.77C523.194 156.555 524.937 156.734 526.575 157.292C528.213 157.85 529.703 158.773 530.932 159.992C532.161 161.21 533.097 162.692 533.67 164.326L540.947 185.082Z" fill="#EDAD00"/>
<path d="M3.18696 51.9842C2.34202 51.9852 1.53198 52.3215 0.93452 52.9194C0.337062 53.5173 0.000983332 54.3279 0 55.1734V206.342C0.000983332 207.188 0.337062 207.999 0.93452 208.596C1.53198 209.194 2.34202 209.531 3.18696 209.532H207.15C207.995 209.531 208.805 209.194 209.403 208.596C210 207.999 210.336 207.188 210.337 206.342V55.1734C210.336 54.3279 210 53.5172 209.403 52.9193C208.805 52.3215 207.995 51.9851 207.15 51.9841L3.18696 51.9842Z" fill="#E6E6E6"/>
<path d="M7.98633 201.54H202.351V59.9766H7.98633V201.54Z" fill="white"/>
<path d="M27.0888 126.781C25.99 126.781 24.9362 127.218 24.1593 127.996C23.3823 128.773 22.9458 129.828 22.9458 130.927C22.9458 132.027 23.3823 133.081 24.1593 133.859C24.9362 134.636 25.99 135.073 27.0888 135.073H183.248C184.347 135.073 185.401 134.636 186.178 133.859C186.955 133.081 187.391 132.027 187.391 130.927C187.391 129.828 186.955 128.773 186.178 127.996C185.401 127.218 184.347 126.781 183.248 126.781H27.0888Z" fill="#E6E6E6"/>
<path d="M27.0888 152.295C25.99 152.295 24.9362 152.732 24.1593 153.51C23.3823 154.287 22.9458 155.342 22.9458 156.441C22.9458 157.541 23.3823 158.595 24.1593 159.373C24.9362 160.15 25.99 160.587 27.0888 160.587H183.248C184.347 160.587 185.401 160.15 186.178 159.373C186.955 158.595 187.391 157.541 187.391 156.441C187.391 155.342 186.955 154.287 186.178 153.51C185.401 152.732 184.347 152.295 183.248 152.295H27.0888Z" fill="#E6E6E6"/>
<path d="M96.8825 179.084C95.7837 179.084 94.7299 179.521 93.953 180.299C93.176 181.076 92.7395 182.131 92.7395 183.23C92.7395 184.33 93.176 185.385 93.953 186.162C94.7299 186.94 95.7837 187.376 96.8825 187.376H113.455C114.553 187.376 115.607 186.94 116.384 186.162C117.161 185.385 117.598 184.33 117.598 183.23C117.598 182.131 117.161 181.076 116.384 180.299C115.607 179.521 114.553 179.084 113.455 179.084H96.8825Z" fill="#EDAD00"/>
<path d="M82.9623 74.1365C82.6243 74.1368 82.3002 74.2713 82.0612 74.5105C81.8222 74.7496 81.6878 75.0739 81.6875 75.4122V107.795C81.6878 108.134 81.8222 108.458 82.0612 108.697C82.3002 108.936 82.6243 109.071 82.9623 109.071H127.375C127.713 109.071 128.037 108.936 128.276 108.697C128.515 108.458 128.65 108.134 128.65 107.795V75.4122C128.65 75.0739 128.515 74.7496 128.276 74.5105C128.037 74.2713 127.713 74.1368 127.375 74.1365H82.9623Z" fill="#EDAD00"/>
<path d="M105.169 95.0387C109.041 95.0387 112.18 91.8974 112.18 88.0224C112.18 84.1474 109.041 81.0061 105.169 81.0061C101.297 81.0061 98.1575 84.1474 98.1575 88.0224C98.1575 91.8974 101.297 95.0387 105.169 95.0387Z" fill="white"/>
<path d="M116.642 105.882C116.644 106.991 116.382 108.084 115.877 109.071H94.4606C93.9148 108.002 93.6526 106.81 93.6991 105.609C93.7456 104.409 94.0992 103.241 94.7261 102.217C95.353 101.193 96.2321 100.347 97.2793 99.7599C98.3265 99.1731 99.5067 98.8653 100.707 98.8657H109.63C110.551 98.8652 111.463 99.0463 112.314 99.3987C113.165 99.7512 113.938 100.268 114.589 100.92C115.24 101.571 115.757 102.345 116.109 103.196C116.461 104.048 116.642 104.96 116.642 105.882Z" fill="white"/>
<path d="M105.169 95.0387C109.041 95.0387 112.18 91.8974 112.18 88.0224C112.18 84.1474 109.041 81.0061 105.169 81.0061C101.297 81.0061 98.1575 84.1474 98.1575 88.0224C98.1575 91.8974 101.297 95.0387 105.169 95.0387Z" fill="white"/>
<path d="M116.642 105.882C116.644 106.991 116.382 108.084 115.877 109.071H94.4606C93.9148 108.002 93.6526 106.81 93.6991 105.609C93.7456 104.409 94.0992 103.241 94.7261 102.217C95.353 101.193 96.2321 100.347 97.2793 99.7599C98.3265 99.1731 99.5067 98.8653 100.707 98.8657H109.63C110.551 98.8652 111.463 99.0463 112.314 99.3987C113.165 99.7512 113.938 100.268 114.589 100.92C115.24 101.571 115.757 102.345 116.109 103.196C116.461 104.048 116.642 104.96 116.642 105.882Z" fill="white"/>
<path d="M105.169 33.1679C114.321 33.1679 121.741 25.743 121.741 16.5839C121.741 7.42488 114.321 0 105.169 0C96.0162 0 88.5967 7.42488 88.5967 16.5839C88.5967 25.743 96.0162 33.1679 105.169 33.1679Z" fill="#E6E6E6"/>
<path d="M105.169 24.8759C109.745 24.8759 113.455 21.1635 113.455 16.584C113.455 12.0044 109.745 8.29199 105.169 8.29199C100.592 8.29199 96.8826 12.0044 96.8826 16.584C96.8826 21.1635 100.592 24.8759 105.169 24.8759Z" fill="#EDAD00"/>
<path d="M569.726 394.536H171.038V393.02H570L569.726 394.536Z" fill="#3F3D56"/>
</g>
<defs>
<clipPath id="clip0">
<rect width="570" height="395" fill="white"/>
</clipPath>
</defs>
</svg>
