<svg width="586" height="385" viewBox="0 0 586 385" fill="none" xmlns="http://www.w3.org/2000/svg">
<g clip-path="url(#clip0)">
<path d="M418.988 263.256C418.988 298.097 397.154 310.263 370.22 310.263C343.286 310.263 321.452 298.097 321.452 263.256C321.452 228.414 370.22 184.089 370.22 184.089C370.22 184.089 418.988 228.414 418.988 263.256Z" fill="#EDAD00"/>
<path d="M368.943 275.773L389.729 239.699L369.021 271.199L369.246 258.088L383.572 231.989L369.305 254.618L369.709 231.037L385.05 210.259L369.773 227.329L370.025 184.089L368.507 238.879L352.973 216.322L368.32 243.502L366.866 269.838L366.823 269.139L348.843 245.306L366.768 271.609L366.587 274.903L366.554 274.952L366.569 275.223L362.882 310.367H367.808L368.399 307.528L386.281 281.29L368.444 304.933L368.943 275.773Z" fill="#3F3D56"/>
<path d="M586 151.227C586 217.784 544.291 241.023 492.841 241.023C441.39 241.023 399.681 217.784 399.681 151.227C399.681 84.6706 492.841 0 492.841 0C492.841 0 586 84.6706 586 151.227Z" fill="#F2F2F2"/>
<path d="M489.447 230.842L490.401 175.14L530.108 106.229L490.551 166.402L490.98 141.356L518.345 91.4995L491.093 134.728V134.729L491.865 89.6821L521.168 49.9901L491.986 82.5987L492.468 0L489.439 109.346L489.688 104.835L459.894 61.5731L489.21 113.494L486.434 163.803L486.351 162.467L452.005 116.941L486.247 167.185L485.9 173.476L485.838 173.571L485.867 174.087L478.823 301.725H488.233L489.362 235.798L523.521 185.677L489.447 230.842Z" fill="#3F3D56"/>
<path d="M582.176 290.581C582.176 310.446 446.333 385 287.533 385C128.733 385 0 346.415 0 326.55C0 306.685 125.573 330.297 284.373 330.297C443.174 330.297 582.176 270.716 582.176 290.581Z" fill="#3F3D56"/>
<path opacity="0.1" d="M582.176 290.581C582.176 310.446 446.333 385 287.533 385C128.733 385 0 346.415 0 326.55C0 306.685 125.573 330.297 284.373 330.297C443.174 330.297 582.176 270.716 582.176 290.581Z" fill="black"/>
<path d="M582.176 290.581C582.176 310.446 446.333 362.519 287.533 362.519C128.733 362.519 0 346.415 0 326.55C0 306.685 125.573 307.816 284.373 307.816C443.174 307.816 582.176 270.716 582.176 290.581Z" fill="#3F3D56"/>
<path opacity="0.1" d="M290.75 339.283C358.185 339.283 412.852 335.272 412.852 330.324C412.852 325.376 358.185 321.365 290.75 321.365C223.316 321.365 168.649 325.376 168.649 330.324C168.649 335.272 223.316 339.283 290.75 339.283Z" fill="black"/>
<path d="M194.021 150.791C194.021 150.791 229.768 151.419 223.148 157.384C216.528 163.35 191.705 157.384 191.705 157.384L194.021 150.791Z" fill="#A0616A"/>
<path d="M119.543 78.3291C119.543 78.3291 133.975 75.8841 138.994 86.9369C144.012 97.9896 154.318 129.511 154.318 129.511C154.318 129.511 181.898 146.83 186.915 146.261C191.931 145.692 200.507 146.853 198.934 152.045C197.361 157.236 198.059 163.124 194.438 163.845C190.816 164.567 185.057 157.679 180.649 160.997C176.24 164.314 136.955 152.197 134.433 149.686C131.911 147.176 110.952 92.8108 110.952 92.8108C110.952 92.8108 111.79 78.152 119.543 78.3291Z" fill="#EDAD00"/>
<path d="M150.497 311.708L152.152 324.896L138.251 328.35L130.307 324.896V313.278L150.497 311.708Z" fill="#A0616A"/>
<path d="M113.096 320.186L114.75 333.373L100.849 336.828L92.9055 333.373V321.756L113.096 320.186Z" fill="#A0616A"/>
<path d="M151.821 167.589L158.11 189.254L167.377 233.212C167.377 233.212 170.025 243.888 164.729 256.761C159.433 269.635 149.835 311.709 151.821 314.221C153.807 316.732 129.314 318.616 129.645 316.104C129.976 313.593 133.286 279.054 133.286 279.054C133.286 279.054 137.919 248.597 140.236 244.83C142.553 241.062 129.645 231.642 129.645 231.642C129.645 231.642 126.335 267.751 121.37 270.891C116.406 274.03 117.068 322.698 114.751 323.326C112.434 323.954 95.5536 326.466 93.5677 323.326C91.5818 320.186 93.5677 267.751 93.5677 267.751C93.5677 267.751 104.821 227.874 102.504 222.223C100.187 216.571 101.511 192.394 101.511 192.394C101.511 192.394 92.9057 173.869 97.5395 164.135L151.821 167.589Z" fill="#2F2E41"/>
<path d="M150.828 47.0183C150.828 47.0183 136.926 63.3456 137.588 70.5672C138.25 77.7889 115.743 57.3798 115.743 57.3798C115.743 57.3798 131.962 36.6567 131.962 32.2609C131.962 27.8651 150.828 47.0183 150.828 47.0183Z" fill="#A0616A"/>
<path d="M150.662 53.141C162.727 53.141 172.507 43.8629 172.507 32.4179C172.507 20.9729 162.727 11.6948 150.662 11.6948C138.598 11.6948 128.817 20.9729 128.817 32.4179C128.817 43.8629 138.598 53.141 150.662 53.141Z" fill="#A0616A"/>
<path d="M95.6099 155.843C94.6203 159.341 93.3923 163.306 93.5678 166.647C93.6803 168.81 99.734 170.23 108.105 171.159C115.866 172.023 125.62 172.462 134.487 172.688C143.798 172.927 152.122 172.927 156.124 172.927C168.039 172.927 158.441 165.705 153.807 162.251C149.173 158.797 150.166 109.816 150.497 103.536C150.828 97.2561 147.518 79.045 147.518 75.5911C147.518 72.1373 139.73 63.1227 139.73 63.1227C139.73 63.1227 137.92 68.0554 130.638 61.4618C123.356 54.8681 113.758 52.9841 113.758 52.9841C106.476 55.496 94.2297 83.1268 93.5678 87.8366C93.2996 89.7488 93.5214 99.542 93.9716 110.723C94.6236 127.066 95.7622 146.386 96.5466 148.436C97.1655 150.053 96.4804 152.766 95.6099 155.843Z" fill="#EDAD00"/>
<path d="M130.969 174.183L133.286 182.032L124.349 190.824L121.37 178.578L130.969 174.183Z" fill="#A0616A"/>
<path d="M133.948 321.442C133.948 321.442 140.898 328.978 146.194 323.954C151.49 318.93 151.159 315.791 152.152 315.791C153.145 315.791 168.039 328.35 168.039 328.35C168.039 328.35 193.525 334.002 179.624 338.084C165.722 342.165 126.335 339.339 126.335 338.084C126.335 336.828 125.342 320.186 128.983 320.186L133.948 321.442Z" fill="#2F2E41"/>
<path d="M96.5464 329.92C96.5464 329.92 103.497 337.455 108.793 332.432C114.089 327.408 113.758 324.268 114.75 324.268C115.743 324.268 130.638 336.828 130.638 336.828C130.638 336.828 156.123 342.479 142.222 346.561C128.321 350.643 88.9337 347.817 88.9337 346.561C88.9337 345.305 87.9408 328.664 91.5816 328.664L96.5464 329.92Z" fill="#2F2E41"/>
<path d="M126.137 48.96C125.431 49.3925 124.512 49.8308 123.806 49.3996C121.179 43.1843 119.215 36.7349 117.944 30.148C117.498 27.8343 117.188 25.2622 118.543 23.2924C119.078 22.5155 119.847 21.8802 120.238 21.0301C120.831 19.7427 120.441 18.2525 120.638 16.8602C121.051 13.9431 123.957 11.9086 126.88 10.9219C129.803 9.93514 132.978 9.62906 135.764 8.33428C138.409 7.10485 140.528 5.0659 142.981 3.51865C145.435 1.97139 148.577 0.913472 151.309 1.959C153.726 2.88393 155.231 5.22086 157.515 6.41074C159.066 7.21821 160.865 7.4429 162.595 7.78951C167.404 8.75747 171.919 10.7475 175.801 13.6099C176.745 14.2489 177.56 15.0453 178.204 15.9602C181.136 20.5386 175.887 26.7632 178.203 31.649L173.197 27.9016C171.86 26.7923 170.352 25.8833 168.726 25.2061C167.067 24.6103 165.104 24.5383 163.597 25.4259C161.484 26.6715 160.91 29.2737 160.172 31.5281C159.433 33.7824 157.801 36.2823 155.313 36.2245C151.93 36.146 150.746 31.667 147.71 30.2489C145.731 29.3245 143.24 29.9333 141.552 31.2815C139.865 32.6296 138.853 34.5857 138.11 36.5563C137.646 37.7878 137.211 39.1759 136.387 40.2434C135.478 41.4207 134.315 41.5154 133.344 42.3946C130.817 44.6831 129.263 47.044 126.137 48.96Z" fill="#2F2E41"/>
<path opacity="0.1" d="M95.6098 155.843C99.7239 161.504 104.361 167.344 108.104 171.159C115.866 172.023 125.62 172.462 134.487 172.688C132.903 170.651 130.922 168.92 128.652 167.589C124.349 165.077 114.089 135.249 114.089 135.249C114.089 135.249 126.666 104.478 129.976 92.8604C133.286 81.2429 120.377 74.6492 120.377 74.6492C114.42 69.9394 104.159 80.9289 104.159 80.9289C104.159 80.9289 98.9229 95.9123 93.9714 110.723C94.6235 127.066 95.7621 146.386 96.5465 148.436C97.1654 150.053 96.4803 152.766 95.6098 155.843Z" fill="black"/>
<path d="M119.384 72.1372C119.384 72.1372 132.293 78.731 128.983 90.3484C125.673 101.966 113.096 132.737 113.096 132.737C113.096 132.737 123.356 162.565 127.659 165.077C131.962 167.589 137.92 173.555 133.286 176.695C128.652 179.835 125.342 184.858 122.032 183.288C118.722 181.718 118.722 172.927 113.096 172.927C107.469 172.927 84.6311 140.272 84.3001 136.818C83.9691 133.365 103.166 78.417 103.166 78.417C103.166 78.417 113.427 67.4274 119.384 72.1372Z" fill="#EDAD00"/>
<path d="M387.798 157.959L384.075 154.426C381.903 152.366 378.957 151.208 375.886 151.208C372.814 151.208 369.868 152.366 367.697 154.426L295.473 222.941L223.248 154.426C221.077 152.366 218.131 151.208 215.059 151.208C211.988 151.208 209.042 152.366 206.87 154.426L203.147 157.959C202.071 158.979 201.218 160.19 200.636 161.523C200.054 162.856 199.755 164.284 199.755 165.727C199.755 167.17 200.054 168.598 200.636 169.931C201.218 171.264 202.071 172.475 203.147 173.496L275.371 242.011L203.147 310.525C202.071 311.546 201.218 312.757 200.636 314.09C200.054 315.423 199.755 316.851 199.755 318.294C199.755 319.737 200.054 321.165 200.636 322.498C201.218 323.831 202.071 325.042 203.147 326.062L206.87 329.595C209.042 331.655 211.988 332.813 215.059 332.813C218.131 332.813 221.077 331.655 223.248 329.595L295.473 261.08L367.697 329.595C369.868 331.655 372.814 332.813 375.886 332.813C378.957 332.813 381.903 331.655 384.075 329.595L387.798 326.062C389.97 324.002 391.19 321.208 391.19 318.294C391.19 315.38 389.97 312.586 387.798 310.525L315.574 242.011L387.798 173.496C389.97 171.435 391.19 168.641 391.19 165.727C391.19 162.813 389.97 160.019 387.798 157.959Z" fill="#FF6584"/>
<path opacity="0.1" d="M200.57 314.251L270.649 247.77L269.974 247.13L203.147 310.526C202.028 311.587 201.15 312.854 200.57 314.251Z" fill="black"/>
<path opacity="0.1" d="M202.148 160.186C204.32 158.126 207.266 156.968 210.337 156.968C213.409 156.968 216.355 158.126 218.526 160.186L290.751 228.701L362.975 160.186C365.146 158.126 368.092 156.968 371.164 156.968C374.235 156.968 377.181 158.126 379.353 160.186L383.076 163.718C384.674 165.234 385.769 167.16 386.227 169.259C386.685 171.357 386.485 173.537 385.654 175.53L387.798 173.496C388.874 172.475 389.727 171.264 390.309 169.931C390.891 168.598 391.19 167.17 391.19 165.727C391.19 164.284 390.891 162.856 390.309 161.523C389.727 160.19 388.874 158.979 387.798 157.959L384.075 154.426C381.903 152.366 378.957 151.209 375.886 151.209C372.814 151.209 369.869 152.366 367.697 154.426L295.473 222.941L223.249 154.426C221.077 152.366 218.131 151.208 215.06 151.208C211.988 151.208 209.042 152.366 206.871 154.426L203.147 157.959C202.028 159.019 201.15 160.287 200.57 161.684L202.148 160.186Z" fill="black"/>
<path opacity="0.1" d="M316.249 242.651L310.852 247.77L383.076 316.285C384.674 317.801 385.769 319.727 386.227 321.826C386.685 323.924 386.486 326.104 385.654 328.097L387.798 326.063C388.874 325.042 389.727 323.831 390.309 322.498C390.891 321.165 391.19 319.737 391.19 318.294C391.19 316.851 390.891 315.423 390.309 314.09C389.727 312.757 388.874 311.546 387.798 310.526L316.249 242.651Z" fill="black"/>
<path d="M84.0979 288.334C84.0979 317.271 65.9638 327.375 43.5941 327.375C21.2245 327.375 3.09033 317.271 3.09033 288.334C3.09033 259.396 43.5941 222.583 43.5941 222.583C43.5941 222.583 84.0979 259.396 84.0979 288.334Z" fill="#EDAD00"/>
<path d="M42.5336 298.73L59.7976 268.769L42.5987 294.931L42.7853 284.042L54.6833 262.365L42.8347 281.16L43.17 261.575L55.9106 244.317L43.2226 258.495L43.4321 222.583L42.1717 268.088L29.27 249.354L42.0154 271.927L40.8088 293.801L40.7729 293.22L25.8398 273.426L40.7274 295.271L40.5765 298.007L40.5494 298.048L40.5619 298.273L37.4996 327.461H41.5911L42.0822 325.103L56.9333 303.312L42.1191 322.948L42.5336 298.73Z" fill="#3F3D56"/>
</g>
<defs>
<clipPath id="clip0">
<rect width="586" height="385" fill="white"/>
</clipPath>
</defs>
</svg>
