<svg width="415" height="192" viewBox="0 0 415 192" fill="none" xmlns="http://www.w3.org/2000/svg">
<g clip-path="url(#clip0)">
<path d="M37.2473 182.786L36.6887 182.576C36.5659 182.53 24.3487 177.848 18.6256 167.231C12.9023 156.614 15.7048 143.831 15.7337 143.704L15.8656 143.121L16.424 143.331C16.5467 143.377 28.7637 148.059 34.487 158.676C40.2103 169.293 37.4079 182.076 37.3789 182.203L37.2473 182.786ZM19.5421 166.737C24.3807 175.713 34.0352 180.315 36.4813 181.365C36.9464 178.743 38.4049 168.138 33.5706 159.17C28.7368 150.203 19.0785 145.595 16.6314 144.542C16.1661 147.166 14.708 157.77 19.5421 166.737Z" fill="#3F3D56"/>
<path d="M22.9995 163.507C33.2846 169.697 37.2457 181.991 37.2457 181.991C37.2457 181.991 24.5314 184.25 14.2462 178.06C3.96112 171.871 0 159.576 0 159.576C0 159.576 12.7144 157.317 22.9995 163.507Z" fill="#D0CDE1"/>
<path d="M352.158 2.36453H237.467V0H185.462V2.36453H70.2983C69.2795 2.36453 68.2706 2.56526 67.3294 2.95524C66.3882 3.34522 65.5329 3.91683 64.8125 4.63742C64.0921 5.35802 63.5207 6.21349 63.1308 7.15499C62.741 8.09649 62.5403 9.10559 62.5403 10.1247V167.215C62.5403 169.273 63.3576 171.247 64.8125 172.702C66.2674 174.158 68.2407 174.975 70.2983 174.975H352.158C353.177 174.975 354.186 174.775 355.127 174.385C356.068 173.995 356.923 173.423 357.644 172.702C358.364 171.982 358.935 171.126 359.325 170.185C359.715 169.243 359.916 168.234 359.916 167.215V10.1247C359.916 9.10559 359.715 8.09648 359.325 7.15498C358.935 6.21348 358.364 5.35801 357.644 4.63742C356.923 3.91682 356.068 3.34522 355.127 2.95523C354.186 2.56525 353.177 2.36453 352.158 2.36453Z" fill="#3F3D56"/>
<path d="M349.515 16.0788H72.9414V172.138H349.515V16.0788Z" fill="#F5F5F5"/>
<path d="M210.992 11.8227C212.558 11.8227 213.828 10.5523 213.828 8.98523C213.828 7.41815 212.558 6.14779 210.992 6.14779C209.425 6.14779 208.155 7.41815 208.155 8.98523C208.155 10.5523 209.425 11.8227 210.992 11.8227Z" fill="#EDAD00"/>
<path d="M333.638 35.9407H320.527V22.8268H333.638V35.9407ZM321.097 35.3706H333.068V23.397H321.097V35.3706Z" fill="#3F3D56"/>
<path d="M367.681 169.301H340.69V167.355C340.69 167.305 340.68 167.254 340.66 167.208C340.641 167.161 340.613 167.118 340.577 167.082C340.541 167.047 340.498 167.018 340.452 166.999C340.405 166.979 340.355 166.97 340.304 166.97H331.05C330.999 166.97 330.949 166.979 330.902 166.999C330.855 167.018 330.813 167.047 330.777 167.082C330.741 167.118 330.713 167.161 330.694 167.208C330.674 167.254 330.664 167.305 330.664 167.355V169.301H324.88V167.355C324.88 167.305 324.87 167.254 324.851 167.208C324.832 167.161 324.803 167.118 324.767 167.082C324.731 167.047 324.689 167.018 324.642 166.999C324.595 166.979 324.545 166.97 324.495 166.97H315.24C315.19 166.97 315.14 166.979 315.093 166.999C315.046 167.018 315.003 167.047 314.968 167.082C314.932 167.118 314.903 167.161 314.884 167.208C314.865 167.254 314.855 167.305 314.855 167.355V169.301H309.071V167.355C309.071 167.305 309.061 167.254 309.041 167.208C309.022 167.161 308.994 167.118 308.958 167.082C308.922 167.047 308.879 167.018 308.833 166.999C308.786 166.979 308.736 166.97 308.685 166.97H299.431C299.38 166.97 299.33 166.979 299.283 166.999C299.236 167.018 299.194 167.047 299.158 167.082C299.122 167.118 299.094 167.161 299.075 167.208C299.055 167.254 299.045 167.305 299.045 167.355V169.301H293.261V167.355C293.261 167.305 293.251 167.254 293.232 167.208C293.213 167.161 293.184 167.118 293.148 167.082C293.113 167.047 293.07 167.018 293.023 166.999C292.976 166.979 292.926 166.97 292.876 166.97H283.621C283.571 166.97 283.521 166.979 283.474 166.999C283.427 167.018 283.385 167.047 283.349 167.082C283.313 167.118 283.285 167.161 283.265 167.208C283.246 167.254 283.236 167.305 283.236 167.355V169.301H277.452V167.355C277.452 167.305 277.442 167.254 277.422 167.208C277.403 167.161 277.375 167.118 277.339 167.082C277.303 167.047 277.261 167.018 277.214 166.999C277.167 166.979 277.117 166.97 277.066 166.97H267.812C267.761 166.97 267.711 166.979 267.664 166.999C267.618 167.018 267.575 167.047 267.539 167.082C267.503 167.118 267.475 167.161 267.456 167.208C267.436 167.254 267.426 167.305 267.426 167.355V169.301H261.642V167.355C261.642 167.305 261.632 167.254 261.613 167.208C261.594 167.161 261.565 167.118 261.529 167.082C261.494 167.047 261.451 167.018 261.404 166.999C261.358 166.979 261.307 166.97 261.257 166.97H252.002C251.952 166.97 251.902 166.979 251.855 166.999C251.808 167.018 251.766 167.047 251.73 167.082C251.694 167.118 251.666 167.161 251.646 167.208C251.627 167.254 251.617 167.305 251.617 167.355V169.301H245.833V167.355C245.833 167.305 245.823 167.254 245.804 167.208C245.784 167.161 245.756 167.118 245.72 167.082C245.684 167.047 245.642 167.018 245.595 166.999C245.548 166.979 245.498 166.97 245.447 166.97H172.955C172.904 166.97 172.854 166.979 172.808 166.999C172.761 167.018 172.718 167.047 172.682 167.082C172.647 167.118 172.618 167.161 172.599 167.208C172.579 167.254 172.57 167.305 172.57 167.355V169.301H166.786V167.355C166.786 167.305 166.776 167.254 166.756 167.208C166.737 167.161 166.708 167.118 166.673 167.082C166.637 167.047 166.594 167.018 166.548 166.999C166.501 166.979 166.451 166.97 166.4 166.97H157.146C157.095 166.97 157.045 166.979 156.998 166.999C156.951 167.018 156.909 167.047 156.873 167.082C156.837 167.118 156.809 167.161 156.789 167.208C156.77 167.254 156.76 167.305 156.76 167.355V169.301H150.976V167.355C150.976 167.305 150.966 167.254 150.947 167.208C150.927 167.161 150.899 167.118 150.863 167.082C150.827 167.047 150.785 167.018 150.738 166.999C150.691 166.979 150.641 166.97 150.59 166.97H141.336C141.286 166.97 141.235 166.979 141.189 166.999C141.142 167.018 141.099 167.047 141.064 167.082C141.028 167.118 140.999 167.161 140.98 167.208C140.961 167.254 140.951 167.305 140.951 167.355V169.301H135.167V167.355C135.167 167.305 135.157 167.254 135.137 167.208C135.118 167.161 135.09 167.118 135.054 167.082C135.018 167.047 134.975 167.018 134.929 166.999C134.882 166.979 134.832 166.97 134.781 166.97H125.527C125.476 166.97 125.426 166.979 125.379 166.999C125.332 167.018 125.29 167.047 125.254 167.082C125.218 167.118 125.19 167.161 125.17 167.208C125.151 167.254 125.141 167.305 125.141 167.355V169.301H119.357V167.355C119.357 167.305 119.347 167.254 119.328 167.208C119.308 167.161 119.28 167.118 119.244 167.082C119.208 167.047 119.166 167.018 119.119 166.999C119.072 166.979 119.022 166.97 118.972 166.97H109.717C109.667 166.97 109.616 166.979 109.57 166.999C109.523 167.018 109.48 167.047 109.445 167.082C109.409 167.118 109.38 167.161 109.361 167.208C109.342 167.254 109.332 167.305 109.332 167.355V169.301H103.548V167.355C103.548 167.305 103.538 167.254 103.518 167.208C103.499 167.161 103.471 167.118 103.435 167.082C103.399 167.047 103.356 167.018 103.31 166.999C103.263 166.979 103.213 166.97 103.162 166.97H93.9078C93.8571 166.97 93.807 166.979 93.7602 166.999C93.7134 167.018 93.6709 167.047 93.6351 167.082C93.5993 167.118 93.5709 167.161 93.5515 167.208C93.5322 167.254 93.5222 167.305 93.5222 167.355V169.301H87.7382V167.355C87.7382 167.305 87.7283 167.254 87.7089 167.208C87.6895 167.161 87.6611 167.118 87.6253 167.082C87.5895 167.047 87.547 167.018 87.5002 166.999C87.4534 166.979 87.4033 166.97 87.3526 166.97H78.0983C78.0477 166.97 77.9975 166.979 77.9507 166.999C77.904 167.018 77.8615 167.047 77.8256 167.082C77.7898 167.118 77.7614 167.161 77.7421 167.208C77.7227 167.254 77.7127 167.305 77.7127 167.355V169.301H59.9753C57.5209 169.301 55.167 170.276 53.4315 172.012C51.696 173.748 50.7209 176.102 50.7209 178.557V182.743C50.721 185.198 51.696 187.553 53.4315 189.289C55.167 191.025 57.5209 192 59.9753 192H367.681C370.136 192 372.49 191.025 374.225 189.289C375.961 187.553 376.936 185.198 376.936 182.743V178.557C376.936 176.102 375.961 173.748 374.225 172.012C372.49 170.276 370.136 169.301 367.681 169.301Z" fill="#3F3D56"/>
<path d="M415 182.503H12.6567V183.731H415V182.503Z" fill="#3F3D56"/>
<path d="M332.418 103.038H243.37V52.3282H332.418V103.038ZM244.252 102.156H331.536V53.2101H244.252V102.156Z" fill="#3F3D56"/>
<path d="M169.311 113.18H89.9612V63.793H169.311V113.18ZM90.8428 112.298H168.429V64.6749H90.8428V112.298Z" fill="#3F3D56"/>
<path d="M127.033 94.2188L126.957 93.2327C126.729 91.1851 127.412 88.9476 129.307 86.6727C131.013 84.6625 131.961 83.1838 131.961 81.4773C131.961 79.5433 130.748 78.2541 128.359 78.2162C126.993 78.2106 125.658 78.6206 124.53 79.3918L123.62 77.0027C124.872 76.0924 127.032 75.4856 129.042 75.4856C133.402 75.4856 135.373 78.1783 135.373 81.06C135.373 83.6389 133.932 85.4971 132.112 87.6583C130.444 89.6301 129.838 91.2988 129.951 93.2327L129.989 94.2188L127.033 94.2188ZM126.198 99.5279C126.178 99.2185 126.222 98.9083 126.328 98.6168C126.433 98.3253 126.598 98.0588 126.812 97.8343C127.026 97.6098 127.284 97.4321 127.569 97.3123C127.855 97.1926 128.163 97.1336 128.473 97.1388C129.8 97.1388 130.71 98.1245 130.71 99.5279C130.722 99.832 130.673 100.136 130.566 100.42C130.458 100.705 130.294 100.965 130.083 101.185C129.872 101.404 129.619 101.579 129.34 101.698C129.06 101.818 128.758 101.879 128.454 101.879C128.15 101.879 127.849 101.818 127.569 101.698C127.289 101.579 127.036 101.404 126.825 101.185C126.615 100.965 126.45 100.705 126.343 100.42C126.235 100.136 126.186 99.832 126.198 99.5279Z" fill="#D0CDE1"/>
<path d="M285.291 83.195L285.215 82.2089C284.988 80.1613 285.67 77.9238 287.565 75.6488C289.271 73.6387 290.219 72.16 290.219 70.4534C290.219 68.5195 289.006 67.2302 286.618 67.1923C285.252 67.1868 283.916 67.5968 282.789 68.3679L281.879 65.9789C283.13 65.0685 285.291 64.4618 287.3 64.4618C291.66 64.4618 293.631 67.1544 293.631 70.0361C293.631 72.6151 292.19 74.4732 290.371 76.6345C288.703 78.6063 288.096 80.275 288.21 82.2089L288.248 83.195L285.291 83.195ZM284.457 88.5041C284.436 88.1947 284.48 87.8844 284.586 87.5929C284.691 87.3014 284.856 87.035 285.07 86.8105C285.284 86.5859 285.542 86.4082 285.828 86.2885C286.114 86.1688 286.421 86.1097 286.731 86.115C288.058 86.115 288.968 87.1007 288.968 88.5041C288.981 88.8082 288.932 89.1117 288.824 89.3964C288.716 89.6811 288.552 89.9411 288.341 90.1607C288.131 90.3803 287.878 90.555 287.598 90.6744C287.318 90.7938 287.017 90.8553 286.712 90.8553C286.408 90.8553 286.107 90.7938 285.827 90.6744C285.547 90.555 285.294 90.3803 285.084 90.1607C284.873 89.9411 284.709 89.6811 284.601 89.3964C284.493 89.1117 284.444 88.8082 284.457 88.5041Z" fill="#D0CDE1"/>
<path d="M212.786 153.073C233.795 153.073 250.826 136.037 250.826 115.022C250.826 94.0072 233.795 76.9713 212.786 76.9713C191.777 76.9713 174.746 94.0072 174.746 115.022C174.746 136.037 191.777 153.073 212.786 153.073Z" fill="#2F2E41"/>
<path d="M198.094 167.129L186.722 165.07L190.41 141.318L201.782 143.378L198.094 167.129Z" fill="#2F2E41"/>
<path d="M224.526 147.496L213.154 145.437L209.465 165.817L220.837 167.876L224.526 147.496Z" fill="#2F2E41"/>
<path d="M228.438 168.986C228.833 167.031 224.926 164.592 219.713 163.539C214.499 162.486 209.953 163.218 209.558 165.174C209.163 167.129 213.07 169.568 218.283 170.621C223.497 171.674 228.043 170.942 228.438 168.986Z" fill="#2F2E41"/>
<path d="M204.753 168.372C205.015 166.394 200.953 164.224 195.68 163.526C190.407 162.827 185.921 163.864 185.659 165.842C185.397 167.82 189.459 169.989 194.731 170.688C200.004 171.387 204.491 170.35 204.753 168.372Z" fill="#2F2E41"/>
<path d="M215.449 118.719C222.63 118.719 228.45 112.897 228.45 105.715C228.45 98.5323 222.63 92.7099 215.449 92.7099C208.269 92.7099 202.448 98.5323 202.448 105.715C202.448 112.897 208.269 118.719 215.449 118.719Z" fill="white"/>
<path d="M220.792 105.388C223.186 105.388 225.126 103.447 225.126 101.053C225.126 98.659 223.186 96.7182 220.792 96.7182C218.399 96.7182 216.459 98.659 216.459 101.053C216.459 103.447 218.399 105.388 220.792 105.388Z" fill="#3F3D56"/>
<path d="M182.778 73.6268C182.206 59.5398 194.343 47.608 209.888 46.9764C225.432 46.3449 238.497 57.2526 239.069 71.3396C239.642 85.4266 228.836 88.6273 213.292 89.2589C197.747 89.8905 183.35 87.7138 182.778 73.6268Z" fill="white"/>
<path d="M249.245 113.912C259.484 111.564 267.187 107.054 266.45 103.839C265.714 100.624 256.816 99.9206 246.577 102.268C236.338 104.616 228.635 109.125 229.372 112.341C230.108 115.556 239.006 116.259 249.245 113.912Z" fill="#2F2E41"/>
<path d="M174.573 126.333C184.812 123.985 192.516 119.476 191.779 116.26C191.042 113.045 182.144 112.342 171.905 114.689C161.666 117.037 153.963 121.547 154.7 124.762C155.437 127.977 164.334 128.68 174.573 126.333Z" fill="#2F2E41"/>
<path d="M202.338 130.017C202.136 131.138 202.155 132.287 202.397 133.4C202.638 134.512 203.096 135.567 203.745 136.502C204.393 137.438 205.22 138.236 206.177 138.853C207.134 139.469 208.203 139.89 209.323 140.093C210.443 140.296 211.592 140.276 212.705 140.035C213.817 139.793 214.871 139.335 215.806 138.686C216.741 138.038 217.54 137.211 218.156 136.253C218.772 135.296 219.193 134.227 219.396 133.106C220.249 128.395 216.607 126.727 211.896 125.874C207.186 125.021 203.191 125.306 202.338 130.017Z" fill="white"/>
<path d="M130.672 5.78629H68.1235V65.3006H130.672V5.78629Z" fill="#D0CDE1"/>
<path d="M123.564 12.896H75.2314V49.8665H123.564V12.896Z" fill="white"/>
<path d="M101.473 54.2282H75.1836V55.6122H101.473V54.2282Z" fill="#F2F2F2"/>
<path d="M101.473 58.3803H75.1836V59.7644H101.473V58.3803Z" fill="#F2F2F2"/>
<path d="M83.8316 36.9275C86.8883 36.9275 89.3662 34.4488 89.3662 31.3913C89.3662 28.3337 86.8883 25.8551 83.8316 25.8551C80.7748 25.8551 78.2969 28.3337 78.2969 31.3913C78.2969 34.4488 80.7748 36.9275 83.8316 36.9275Z" fill="#0C29D0"/>
<path d="M99.398 36.9275C102.455 36.9275 104.933 34.4488 104.933 31.3913C104.933 28.3337 102.455 25.8551 99.398 25.8551C96.3412 25.8551 93.8633 28.3337 93.8633 31.3913C93.8633 34.4488 96.3412 36.9275 99.398 36.9275Z" fill="#EDAD00"/>
<path d="M114.964 36.9275C118.021 36.9275 120.499 34.4488 120.499 31.3913C120.499 28.3337 118.021 25.8551 114.964 25.8551C111.907 25.8551 109.429 28.3337 109.429 31.3913C109.429 34.4488 111.907 36.9275 114.964 36.9275Z" fill="#0DE49F"/>
<path d="M99.3977 12.0145C100.926 12.0145 102.165 10.7752 102.165 9.24644C102.165 7.71766 100.926 6.47833 99.3977 6.47833C97.8693 6.47833 96.6304 7.71766 96.6304 9.24644C96.6304 10.7752 97.8693 12.0145 99.3977 12.0145Z" fill="#3F3D56"/>
<path d="M160.422 121.024H97.8743V180.538H160.422V121.024Z" fill="#D0CDE1"/>
<path d="M153.315 128.133H104.982V165.104H153.315V128.133Z" fill="white"/>
<path d="M132.562 134.209H115.617V151.158H132.562V134.209Z" fill="#0DE49F"/>
<path d="M122.104 138.447V159.028H142.679V138.447H122.104ZM141.787 158.135H122.996V139.34H141.787V158.135Z" fill="#3F3D56"/>
<path d="M131.224 168.773H104.934V170.157H131.224V168.773Z" fill="#F2F2F2"/>
<path d="M129.148 127.252C130.677 127.252 131.916 126.012 131.916 124.484C131.916 122.955 130.677 121.716 129.148 121.716C127.62 121.716 126.381 122.955 126.381 124.484C126.381 126.012 127.62 127.252 129.148 127.252Z" fill="#3F3D56"/>
<path d="M323.272 103.206H260.723V162.721H323.272V103.206Z" fill="#D0CDE1"/>
<path d="M316.164 110.316H267.831V147.287H316.164V110.316Z" fill="white"/>
<path d="M297.196 139.259H286.799V142.341H297.196V139.259Z" fill="#3F3D56"/>
<path d="M309.767 115.262H274.229V116.583H309.767V115.262Z" fill="#3F3D56"/>
<path d="M309.767 119.445H274.229V120.766H309.767V119.445Z" fill="#3F3D56"/>
<path d="M309.767 123.628H274.229V124.949H309.767V123.628Z" fill="#3F3D56"/>
<path d="M309.767 127.811H274.229V129.132H309.767V127.811Z" fill="#3F3D56"/>
<path d="M309.767 131.994H274.229V133.314H309.767V131.994Z" fill="#3F3D56"/>
<path d="M294.073 150.956H267.783V152.34H294.073V150.956Z" fill="#F2F2F2"/>
<path d="M304.45 154.416H267.783V155.8H304.45V154.416Z" fill="#F2F2F2"/>
<path d="M291.998 109.435C293.526 109.435 294.765 108.195 294.765 106.666C294.765 105.138 293.526 103.898 291.998 103.898C290.469 103.898 289.23 105.138 289.23 106.666C289.23 108.195 290.469 109.435 291.998 109.435Z" fill="#3F3D56"/>
</g>
<defs>
<clipPath id="clip0">
<rect width="415" height="192" fill="white"/>
</clipPath>
</defs>
</svg>
