<svg width="402" height="264" viewBox="0 0 402 264" fill="none" xmlns="http://www.w3.org/2000/svg">
<g clip-path="url(#clip0)">
<path opacity="0.1" d="M285.707 263.997C308.388 263.997 326.775 262.569 326.775 260.807C326.775 259.045 308.388 257.617 285.707 257.617C263.026 257.617 244.639 259.045 244.639 260.807C244.639 262.569 263.026 263.997 285.707 263.997Z" fill="#EDAD00"/>
<path opacity="0.1" d="M176.001 3.86169C194.089 -1.43547 216.108 3.12028 234.912 9.76461C293.972 30.6378 336.998 70.2608 371.183 110.628C383.56 125.245 395.317 140.506 399.97 156.823C409.444 190.035 384.733 224.418 342.708 236.467C328.417 240.568 312.716 242.25 296.991 243.187C269.029 244.856 240.078 244.193 212.34 238.013C192.559 233.596 173.847 226.491 155.9 218.641C105.778 196.708 60.0044 168.225 27.045 133.432C12.5895 118.172 0.36034 100.968 0.0079616 83.3601C-0.344417 65.7524 14.2192 48.0594 38.181 45.0654C48.0876 43.8286 58.5669 45.1158 68.7899 46.4409C83.8421 48.3938 99.0985 50.4477 113.978 49.5959C129.351 48.7093 149.344 43.9769 152.147 32.414C155.115 19.9993 157.938 9.15255 176.001 3.86169Z" fill="#EDAD00"/>
<path d="M97.713 242.556C97.713 242.556 117.038 241.638 114.759 252.308C114.759 252.308 115.212 254.201 113.041 255.049C113.041 255.049 113.009 254.258 111.059 254.526C110.367 254.62 109.662 254.647 108.961 254.608C108.013 254.556 107.112 254.263 106.394 253.772C106.394 253.772 100.96 252.005 98.8502 245.007C98.8502 245.007 97.2845 243.483 97.3486 243.089L100.608 244.187C100.608 244.187 99.4949 246.042 100.372 247.582C100.372 247.582 100.476 244.256 101.105 244.332C101.229 244.348 102.798 244.963 102.798 244.963C102.798 244.963 100.88 248.191 102.326 250.538C102.326 250.538 101.777 246.559 103.395 245.196L105.694 246.253C105.694 246.253 103.451 249.588 104.973 252.308C104.973 252.308 104.572 248.134 106.174 246.509L108.256 247.771C108.256 247.771 106.15 251.058 107.435 253.317C107.435 253.317 107.6 248.456 108.705 248.09C108.705 248.09 110.527 249.352 110.803 249.875C110.803 249.875 109.361 252.26 110.254 253.519C110.254 253.519 110.803 250.282 111.256 250.267C111.256 250.267 113.065 252.412 113.258 253.882C113.258 253.882 113.178 251.696 111.692 250.061C111.692 250.061 113.446 250.298 114.471 251.194C114.471 251.194 114.187 249.677 111.248 249.544C111.248 249.544 109.75 247.919 109.345 247.818C109.345 247.818 112.273 247.626 114.047 248.247C114.047 248.247 112.485 246.815 108.809 247.465L106.755 246.146C106.755 246.146 110.611 245.73 112.241 246.19C112.241 246.19 110.363 244.928 106.202 245.846L103.968 244.793C103.968 244.793 107.251 244.234 109.209 244.436C109.209 244.436 107.143 243.559 103.311 244.509L101.709 243.944C101.709 243.944 104.112 243.572 104.821 243.512C105.529 243.452 105.561 243.3 105.561 243.3C104.037 243.099 102.472 243.236 101.041 243.695C101.041 243.695 97.6529 242.739 97.713 242.556Z" fill="#EDAD00"/>
<path opacity="0.1" d="M111.023 257.8C118.578 257.8 124.702 256.985 124.702 255.98C124.702 254.975 118.578 254.16 111.023 254.16C103.469 254.16 97.3446 254.975 97.3446 255.98C97.3446 256.985 103.469 257.8 111.023 257.8Z" fill="#EDAD00"/>
<path d="M71.8251 235.378C71.8251 235.378 82.7209 234.861 81.4355 240.877C81.5034 241.182 81.4465 241.497 81.273 241.774C81.0996 242.052 80.8185 242.28 80.4704 242.423C80.4704 242.423 80.4504 241.978 79.3532 242.13C78.9632 242.183 78.5665 242.197 78.172 242.174C77.6361 242.148 77.1263 241.983 76.7224 241.704C76.7224 241.704 73.6631 240.704 72.4618 236.76C72.4618 236.76 71.5809 235.899 71.6129 235.678L73.4549 236.309C73.4549 236.309 72.8262 237.356 73.3188 238.224C73.3188 238.224 73.3788 236.347 73.7192 236.391C73.7913 236.391 74.6762 236.754 74.6762 236.754C74.6762 236.754 73.595 238.574 74.4119 239.909C74.4119 239.909 74.0996 237.666 75.0126 236.896L76.306 237.492C76.306 237.492 75.0446 239.385 75.9055 240.906C75.9055 240.906 75.6853 238.552 76.5823 237.637L77.7555 238.357C77.7555 238.357 76.5542 240.209 77.295 241.483C77.295 241.483 77.3871 238.742 78.0118 238.536C78.0118 238.536 79.0369 239.249 79.1931 239.543C79.1931 239.543 78.3922 240.887 78.8847 241.597C78.8847 241.597 79.1931 239.773 79.4494 239.764C79.4494 239.764 80.4704 240.972 80.5746 241.802C80.5235 241.035 80.2199 240.293 79.6936 239.647C80.2827 239.732 80.8272 239.951 81.2593 240.278C81.2593 240.278 81.1031 239.423 79.4413 239.347C79.4413 239.347 78.5964 238.429 78.3722 238.376C78.3722 238.376 80.022 238.265 81.023 238.615C81.023 238.615 80.1421 237.808 78.0679 238.174L76.9106 237.429C76.9106 237.429 79.085 237.196 80.0059 237.454C80.0059 237.454 78.9448 236.741 76.5983 237.262L75.3409 236.666C76.3096 236.499 77.3016 236.432 78.2921 236.467C78.2921 236.467 77.1309 235.971 74.9685 236.508L74.0676 236.192C74.0676 236.192 75.425 235.981 75.8214 235.949C76.2179 235.918 76.2419 235.829 76.2419 235.829C75.3817 235.717 74.4988 235.795 73.6912 236.053C73.6912 236.053 71.7931 235.482 71.8251 235.378Z" fill="#EDAD00"/>
<path opacity="0.1" d="M79.3292 243.972C83.5886 243.972 87.0415 243.512 87.0415 242.944C87.0415 242.376 83.5886 241.915 79.3292 241.915C75.0699 241.915 71.6169 242.376 71.6169 242.944C71.6169 243.512 75.0699 243.972 79.3292 243.972Z" fill="#EDAD00"/>
<path d="M339.877 241.161C339.877 241.161 353.031 240.53 351.49 247.787C351.569 248.155 351.498 248.534 351.288 248.869C351.078 249.205 350.74 249.479 350.32 249.654C350.32 249.654 350.296 249.115 348.971 249.298C348.499 249.361 348.019 249.379 347.541 249.352C346.896 249.319 346.283 249.119 345.796 248.784C345.796 248.784 342.096 247.582 340.658 242.818C340.658 242.818 339.593 241.78 339.637 241.515L341.855 242.259C341.855 242.259 341.099 243.521 341.695 244.572C341.695 244.572 341.767 242.307 342.192 242.363C342.28 242.363 343.345 242.799 343.345 242.799C343.345 242.799 342.04 245.007 343.025 246.585C343.025 246.585 342.652 243.878 343.753 242.95L345.315 243.666C345.315 243.666 343.789 245.938 344.827 247.79C344.827 247.79 344.558 244.95 345.627 243.843L347.045 244.714C347.045 244.714 345.611 246.951 346.484 248.5C346.484 248.5 346.6 245.193 347.353 244.941C347.353 244.941 348.591 245.802 348.779 246.156C348.779 246.156 347.798 247.78 348.406 248.639C348.406 248.639 348.779 246.43 349.087 246.43C349.087 246.43 350.32 247.891 350.449 248.891C350.389 247.966 350.023 247.07 349.387 246.291C350.099 246.397 350.756 246.665 351.277 247.061C351.277 247.061 351.085 246.029 349.079 245.938C349.079 245.938 348.062 244.831 347.79 244.764C347.79 244.764 349.792 244.632 350.993 245.055C350.993 245.055 349.928 244.083 347.425 244.524L346.028 243.625C346.028 243.625 348.651 243.341 349.764 243.654C349.764 243.654 348.482 242.792 345.651 243.42L344.13 242.704C344.13 242.704 346.364 242.325 347.698 242.461C347.698 242.461 346.292 241.865 343.693 242.512L342.604 242.127C342.604 242.127 344.242 241.871 344.722 241.833C345.203 241.795 345.227 241.688 345.227 241.688C344.19 241.552 343.126 241.645 342.152 241.956C342.152 241.956 339.837 241.281 339.877 241.161Z" fill="#EDAD00"/>
<path opacity="0.1" d="M348.935 251.541C354.077 251.541 358.245 250.986 358.245 250.301C358.245 249.616 354.077 249.061 348.935 249.061C343.793 249.061 339.625 249.616 339.625 250.301C339.625 250.986 343.793 251.541 348.935 251.541Z" fill="#EDAD00"/>
<path d="M326.771 164.569C326.519 163.458 326.373 162.333 326.335 161.205C326.335 159.852 324 158.653 324 158.653C324 158.653 322.559 156.025 321.598 155.637C320.637 155.249 317.669 151.81 317.669 151.81C317.635 151.132 317.322 150.48 316.776 149.955C315.888 149.034 315.076 148.069 314.346 147.065C313.945 146.68 314.146 146.409 313.545 144.165C313.513 144.049 313.477 143.935 313.433 143.828C313.433 143.777 313.393 143.733 313.369 143.683C314.006 143.179 314.451 142.544 314.651 141.85C314.851 141.157 314.8 140.433 314.502 139.761C314.394 139.494 314.198 139.255 313.933 139.067C313.257 138.632 312.176 138.812 311.479 138.398L312.22 135.817C312.396 135.186 312.488 134.388 311.787 134.048C311.524 133.949 311.247 133.876 310.962 133.83C309.761 133.514 309.064 132.514 308.752 131.552C308.452 130.625 308.37 129.663 308.512 128.713C308.648 127.798 308.988 126.908 309.112 125.99C309.338 124.292 308.819 122.584 307.643 121.15C307.185 120.531 306.511 120.03 305.701 119.705C304.96 119.443 304.099 119.39 303.406 119.074C301.916 118.326 301.993 116.55 300.803 115.531C299.614 114.512 297.508 114.515 295.774 114.865C294.04 115.216 292.314 115.812 290.536 115.664C289.391 115.563 288.318 115.153 287.169 115.058C286.84 115.033 286.508 115.045 286.184 115.093V115.064C285.335 115.184 284.554 115.556 284.354 116.191C284.309 116.341 284.29 116.496 284.298 116.651C284.298 117.02 284.41 117.405 284.418 117.759C284.432 117.899 284.411 118.04 284.356 118.174C284.3 118.308 284.211 118.432 284.093 118.538C283.865 118.73 283.529 118.831 283.292 119.03C283.196 119.106 283.121 119.197 283.07 119.296C283.02 119.396 282.996 119.503 283 119.61C283 120.172 283.889 120.667 284.486 120.895H284.51C284.35 121.021 284.189 121.153 284.041 121.289C282.331 122.811 281.388 124.774 281.39 126.807C281.405 128.449 282.028 130.052 283.184 131.418C284.339 132.785 285.976 133.855 287.893 134.499L287.809 134.704C287.641 135.109 287.444 135.508 287.221 135.896C286.806 135.787 286.367 135.749 285.932 135.788C285.498 135.826 285.079 135.938 284.706 136.117C283.561 136.748 281.322 136.698 280.726 136.581C280.129 136.464 273.918 135.846 273.418 136C272.917 136.155 271.928 135.461 271.284 136.389C270.639 137.316 270.339 137.818 269.682 138.051C269.025 138.285 267.892 139.017 268.044 139.171C268.196 139.326 266.402 140.253 266.402 140.253C266.402 140.253 264.861 141.515 263.968 141.683C263.075 141.85 261.185 142.806 261.185 142.806L258.994 144.156C258.994 144.156 257.357 144.352 257.853 143.462C258.35 142.572 256.956 141.452 256.956 141.452C256.956 141.452 254.173 137.007 254.173 136.089C254.173 135.171 251.887 131.255 251.887 131.255L251.606 131.233L251.478 130.946C251.058 130.016 250.513 128.873 250.097 128.205C249.296 126.927 248.803 126.794 248.803 126.794C248.803 126.794 239.161 121.09 232.898 122.829C226.636 124.567 244.331 129.747 245.92 130.29C246.477 130.479 246.877 131.091 247.158 131.808C245.747 132.344 244.559 133.185 243.734 134.234C243.734 134.234 247.562 140.919 247.662 142.582C247.762 144.244 250.297 148.892 250.297 148.892C250.297 148.892 251.242 152.334 256.36 152.138C256.36 152.138 263.419 153.16 264.961 152.138C266.502 151.116 267.892 150.314 268.641 150.198C269.191 150.055 269.675 149.786 270.03 149.425C270.03 149.425 267.696 161.019 266.551 162.026C265.405 163.032 255.286 176.049 258.918 178.378C261.795 180.133 264.835 181.715 268.012 183.11C268.32 183.23 269.245 182.015 270.567 181.154C270.567 181.372 270.567 181.593 270.567 181.826C270.591 186.458 271.368 193.499 272.441 195.077C274.043 197.396 273.386 201.879 273.386 201.879C274.228 202.191 275.142 202.364 276.073 202.387C276.121 202.538 276.177 202.702 276.229 202.86C277.106 205.469 278.527 209.504 279.252 210.577C280.345 212.202 281.138 217.345 281.138 217.345C281.138 217.345 281.787 222.392 281.539 223.102C281.443 223.371 281.863 225.472 282.524 228.15C282.123 231.775 281.362 238.763 281.234 241.291C281.234 241.338 281.234 241.385 281.234 241.429V241.474C281.236 241.502 281.236 241.53 281.234 241.559C281.234 241.616 281.234 241.666 281.234 241.713C281.222 241.872 281.23 242.032 281.258 242.19C281.308 242.43 281.285 242.677 281.19 242.909C280.907 243.608 280.546 244.286 280.113 244.935C279.931 245.253 279.77 245.58 279.633 245.913C279.232 246.051 278.744 246.389 278.471 247.212C277.975 248.721 277.23 252.891 277.23 252.891C277.23 252.891 276.93 255.444 276.337 256.024C275.744 256.605 275.136 260.236 279.368 260.7C283.601 261.164 285.431 258.933 285.431 258.933L285.283 248.812V248.793C285.368 248.708 285.442 248.616 285.503 248.519V248.493C285.531 248.446 285.563 248.396 285.591 248.339L285.627 248.263L285.691 248.14C285.689 248.125 285.689 248.111 285.691 248.096C286.102 247.126 286.225 246.096 286.051 245.083V245.032V244.954C286.051 244.928 286.051 244.9 286.051 244.875V244.717C286.051 244.698 286.051 244.676 286.051 244.657C286.051 244.59 286.059 244.52 286.075 244.449C286.075 244.449 286.075 244.423 286.075 244.411L286.1 244.288V244.234C286.1 244.193 286.099 244.152 286.132 244.108C286.13 244.098 286.13 244.087 286.132 244.076C286.172 243.931 286.22 243.761 286.272 243.622V243.587L286.332 243.436C286.392 243.275 286.46 243.12 286.532 242.95V242.919C286.532 242.868 286.576 242.818 286.6 242.77V242.751C286.672 242.597 286.748 242.436 286.82 242.303L286.84 242.262L286.904 242.136L286.924 242.098L287.077 241.818L288.25 244.673C288.25 244.673 288.899 246.799 288.55 247.301C288.202 247.802 288.951 249.891 289.443 249.929L288.983 252.557C288.734 254.006 288.585 255.465 288.538 256.927C288.506 257.094 288.474 257.242 288.45 257.343C288.13 258.69 288.899 260.779 288.899 260.779C292.823 264.435 297.5 261.063 297.5 261.063C297.5 261.063 298.044 259.129 297.5 258.744C296.955 258.359 297.199 256.964 297.199 256.964C297.199 256.964 297.448 253.522 297.496 251.011C297.544 248.5 294.889 246.279 294.889 246.279L294.741 246.383C294.256 245.398 293.704 244.25 293.82 243.736C294.02 242.846 293.271 233.454 293.271 233.454C293.548 230.936 293.607 228.406 293.447 225.882C293.511 225.456 293.572 225.036 293.632 224.62C293.932 222.601 294.176 220.875 294.272 219.969V219.862C294.296 219.619 294.308 219.446 294.304 219.364C294.304 219.048 294.304 218.689 294.344 218.294C294.436 217.209 294.653 216.001 294.653 216.001L295.694 211.013C295.694 211.013 296.495 208.577 297.636 207.227L297.772 207.056C297.816 206.996 297.86 206.93 297.908 206.861L297.928 206.832C297.972 206.766 298.02 206.697 298.064 206.624L298.084 206.596C298.245 206.346 298.417 206.059 298.597 205.744C298.597 205.719 298.625 205.696 298.637 205.671L298.773 205.431C298.773 205.4 298.805 205.368 298.825 205.337C298.845 205.305 298.909 205.176 298.953 205.097C298.973 205.065 298.99 205.033 299.005 204.999C299.057 204.905 299.113 204.807 299.166 204.706L299.242 204.561C299.278 204.488 299.318 204.416 299.358 204.343L299.454 204.151C299.482 204.103 299.506 204.056 299.53 204.009L299.638 203.791C299.638 203.759 299.674 203.725 299.69 203.693C299.974 203.135 300.247 202.583 300.491 202.081C300.567 201.923 300.643 201.765 300.711 201.627C303.258 201.75 304.988 201.86 304.988 201.86C304.988 201.86 305.789 197.339 305.532 194.364C305.364 192.332 305.845 189.777 306.161 188.369C306.197 188.215 306.229 188.076 306.261 187.95L306.329 187.994C307.575 188.767 308.468 186.215 308.468 186.215C308.468 186.215 308.131 183.833 307.667 180.946L307.619 180.659C308.336 180.779 309.062 180.867 309.793 180.921C309.793 180.921 310.193 180.892 310.742 180.839C312.26 181.531 313.861 182.102 315.523 182.542L318.17 178.693C318.667 177.895 319.25 177.132 319.912 176.412C320.713 175.639 323.54 173.166 323.492 172.702C323.444 172.238 324.437 169.569 325.43 168.37C326.423 167.171 326.819 164.761 326.771 164.569ZM315.735 167.506C314.69 167.853 313.697 169.787 313.649 170.367C313.601 170.948 312.504 173.497 311.363 173.806C310.31 174.09 308.299 175.548 307.979 175.781C307.651 175.803 307.278 175.838 306.89 175.888C306.453 173.45 306.021 171.431 305.745 171.024C304.944 169.863 306.622 166.152 306.622 166.152C306.622 166.152 306.786 162.404 307.823 161.515C308.86 160.625 308.624 158.382 308.624 158.382C308.624 158.382 308.872 157.454 308.972 157.031C309.072 156.609 310.45 157.031 310.462 157.031C310.462 157.031 313.145 158.189 313.545 159.928C313.945 161.666 316.877 164.682 316.877 164.682C316.877 164.682 316.428 165.726 316.877 166.26C317.325 166.793 316.78 167.159 315.735 167.506Z" fill="url(#paint0_linear)"/>
<path d="M243.846 134.47C244.662 133.41 245.857 132.562 247.282 132.033C248.706 131.505 250.297 131.319 251.855 131.498V136.013H248.375L245.652 135.47L243.846 134.47Z" fill="#4C4981"/>
<path opacity="0.1" d="M243.846 134.47C244.662 133.41 245.857 132.562 247.282 132.033C248.706 131.505 250.297 131.319 251.855 131.498V136.013H248.375L245.652 135.47L243.846 134.47Z" fill="black"/>
<path d="M252.115 132.694L247.85 135.048C247.85 135.048 247.814 134.578 247.706 133.934C247.494 132.716 247.017 130.89 245.988 130.536C244.423 129.994 226.992 124.826 233.175 123.087C239.357 121.349 248.843 127.047 248.843 127.047C248.843 127.047 249.332 127.179 250.113 128.451C250.513 129.12 251.062 130.259 251.474 131.189C251.855 132.028 252.115 132.694 252.115 132.694Z" fill="#AE6E79"/>
<path d="M286.184 136.319L286.668 136.139L288.03 137.363L286.916 139.234L285.018 138.635L285.459 137.139L286.184 136.319Z" fill="#4C4981"/>
<path d="M279.733 245.894C279.733 245.894 278.507 245.78 278.019 247.285C277.53 248.79 276.793 252.964 276.793 252.964C276.793 252.964 276.501 255.51 275.912 256.091C275.324 256.671 274.739 260.296 278.9 260.757C283.06 261.217 284.874 258.993 284.874 258.993L284.726 248.875L279.733 245.894Z" fill="#444053"/>
<path d="M294.252 246.348C294.252 246.348 296.871 248.556 296.823 251.062C296.775 253.567 296.527 257.002 296.527 257.002C296.527 257.002 296.286 258.394 296.823 258.779C297.36 259.163 296.823 261.094 296.823 261.094C296.823 261.094 292.218 264.461 288.35 260.81C288.35 260.81 287.597 258.725 287.909 257.381C288.222 256.037 289.095 249.995 289.095 249.995L294.252 246.348Z" fill="#444053"/>
<path d="M300.739 200.213C300.739 200.213 298.096 206.037 296.967 207.387C295.838 208.738 295.061 211.173 295.061 211.173L294.032 216.149C293.831 217.261 293.716 218.382 293.688 219.506C293.736 220.626 291.141 236.943 291.141 236.943L287.028 241.073C287.028 241.073 285.218 243.966 285.511 245.174C285.803 246.383 285.315 248.301 284.71 248.878C284.71 248.878 284.614 252.664 284.466 253.507C284.318 254.349 285.006 256.75 284.466 257.173C283.925 257.595 276.729 257.406 276.533 256.709C276.337 256.012 277.414 252.658 277.414 252.658L278.051 249.418C278.051 249.418 279.324 247.645 279.032 247.064C278.74 246.484 279.568 245.136 279.616 245.02C279.665 244.903 280.99 243.013 280.746 242.281C280.501 241.549 282.287 225.983 282.287 225.983L287.329 198.09L300.739 200.213Z" fill="#AE6E79"/>
<path opacity="0.1" d="M300.739 200.213C300.739 200.213 300.339 201.09 299.79 202.242C298.917 204.059 297.66 206.561 296.967 207.388C295.842 208.738 295.057 211.173 295.057 211.173L294.028 216.152C293.829 217.265 293.715 218.386 293.688 219.509C293.688 219.951 293.311 222.768 292.831 226.014C292.09 230.977 291.141 236.946 291.141 236.946L287.028 241.076C287.028 241.076 286.82 241.392 286.56 241.89C286.043 242.837 285.315 244.373 285.511 245.165C285.803 246.361 285.315 248.288 284.71 248.869C284.71 248.869 284.61 252.655 284.466 253.497C284.322 254.34 285.006 256.737 284.466 257.163C283.925 257.589 276.729 257.397 276.533 256.703C276.337 256.008 277.414 252.652 277.414 252.652L278.051 249.408C278.051 249.408 279.324 247.635 279.028 247.055C278.732 246.474 279.568 245.127 279.616 245.01C279.665 244.894 280.99 243.004 280.746 242.272C280.557 241.713 281.547 232.573 282.007 228.239C282.163 226.876 282.263 225.989 282.263 225.989L286.6 201.993L286.952 200.059L287.305 198.096L300.739 200.213Z" fill="black"/>
<path d="M296.335 258.236C296.379 258.662 289.427 259.28 288.434 258.816C287.441 258.353 288.434 252.604 288.434 252.604L288.886 249.983C288.402 249.942 287.665 247.859 288.006 247.358C288.346 246.856 287.713 244.736 287.713 244.736L286.56 241.896L285.855 240.158C284.71 238.167 283.052 232.488 282.023 228.248C281.374 225.585 280.962 223.487 281.054 223.219C281.298 222.525 280.654 217.471 280.654 217.471C280.654 217.471 279.853 212.338 278.796 210.719C278.079 209.647 276.681 205.618 275.816 203.018C275.376 201.683 275.072 200.724 275.072 200.724C275.072 200.724 282.472 200.235 286.96 200.065C289.023 199.986 290.472 199.977 290.304 200.109C290.136 200.242 290.092 200.948 290.1 201.971C290.12 204.618 290.588 209.274 291.085 210.527C291.77 212.262 292.454 217.468 292.162 217.972C291.87 218.477 291.966 221.831 291.966 221.831C292.47 223.193 292.761 224.599 292.831 226.018C292.987 228.53 292.931 231.048 292.663 233.555C292.663 233.555 293.395 242.931 293.199 243.818C293.003 244.704 294.765 247.484 294.765 248.023C294.765 248.563 295.253 252.229 295.253 252.229C295.253 252.229 296.302 257.813 296.335 258.236Z" fill="#AE6E79"/>
<path d="M300.199 145.541L299.358 146.257L298.809 146.724L295.606 149.437L287.329 150.172L282.924 149.245L281.835 149.015C281.835 149.015 281.835 147.273 282.031 145.185C282.311 142.506 282.98 139.253 284.578 138.367C285.378 137.873 286.016 137.236 286.44 136.508C286.759 136.007 287.027 135.485 287.241 134.95C287.273 134.88 287.297 134.814 287.325 134.745C287.685 133.81 287.945 132.853 288.102 131.883C288.102 131.883 289.159 131.423 290.628 130.886C294.46 129.476 301.08 127.529 298.777 131.883C298.439 132.521 298.15 133.174 297.912 133.839C297.876 133.937 297.844 134.035 297.816 134.13C297.047 136.553 297.556 138.023 298.128 138.834C298.225 138.974 298.336 139.108 298.461 139.234C298.617 139.404 298.805 139.553 299.017 139.679L299.97 144.446L300.05 144.841L300.199 145.541Z" fill="#AE6E79"/>
<path opacity="0.1" d="M298.781 132.117C298.345 132.943 298.993 131.442 298.781 132.117C297.035 133.095 292.923 135.881 290.612 135.881C289.051 135.881 288.582 135.657 287.245 135.18C287.649 134.182 287.938 133.156 288.106 132.117C288.106 132.117 301.964 126.097 298.781 132.117Z" fill="black"/>
<path d="M302.309 127.047C302.307 129.124 301.329 131.128 299.565 132.672C297.8 134.216 295.373 135.192 292.751 135.41C292.382 135.439 292.01 135.458 291.633 135.458C289.522 135.458 287.458 134.965 285.702 134.04C283.947 133.116 282.579 131.802 281.771 130.266C280.963 128.729 280.751 127.037 281.163 125.406C281.575 123.774 282.592 122.275 284.085 121.099C285.578 119.923 287.48 119.122 289.551 118.797C291.622 118.473 293.768 118.639 295.719 119.276C297.669 119.912 299.337 120.991 300.51 122.374C301.683 123.757 302.309 125.383 302.309 127.047Z" fill="#AE6E79"/>
<path opacity="0.1" d="M303.827 164.332L302.305 167.459C302.305 167.459 301.068 167.5 299.138 167.547C292.623 167.711 278.267 167.919 277.626 166.6C277.483 166.266 277.407 165.916 277.402 165.562C277.318 163.553 278.507 160.467 278.507 160.467C278.507 160.467 279.192 154.293 279.192 154.025C279.192 153.757 278.603 149.431 278.603 149.431L279.781 145.961L283.06 144.147C283.06 144.147 284.53 145.923 285.411 146.074C286.292 146.226 287.469 147.081 287.469 147.081C287.469 147.081 290.356 148.469 291.289 147.696C292.222 146.923 299.466 143.528 299.466 143.528L303.286 146.847L303.827 164.332Z" fill="black"/>
<path d="M303.827 164.812L302.305 167.935C302.305 167.935 301.068 167.979 299.138 168.026H298.949C298.116 168.049 297.163 168.071 296.146 168.086C290.969 168.181 283.837 168.206 280.109 167.771C278.708 167.613 277.791 167.386 277.638 167.077C277.554 166.891 277.495 166.698 277.462 166.503C277.438 166.357 277.422 166.187 277.414 166.039C277.33 164.029 278.519 160.944 278.519 160.944C278.519 160.944 279.204 154.769 279.204 154.501C279.204 154.233 278.615 149.908 278.615 149.908L279.793 146.437L282.047 145.194L283.072 144.626C283.417 145.033 283.793 145.423 284.197 145.794C284.514 146.128 284.936 146.39 285.423 146.554C286.308 146.708 287.481 147.56 287.481 147.56C287.481 147.56 290.368 148.948 291.301 148.176C292.01 147.586 296.415 145.462 298.449 144.494C299.073 144.194 299.478 144.008 299.478 144.008L299.99 144.456L303.298 147.327L303.827 164.812Z" fill="white"/>
<path opacity="0.1" d="M252.115 132.694L247.85 135.048C247.85 135.048 247.814 134.578 247.706 133.934C249.812 133.234 251.094 131.685 251.462 131.189C251.855 132.028 252.115 132.694 252.115 132.694Z" fill="black"/>
<path d="M267.099 140.682L266.17 140.487C266.17 140.487 264.648 141.749 263.767 141.916C262.887 142.083 261.028 143.033 261.028 143.033L258.87 144.383C258.87 144.383 257.268 144.579 257.745 143.689C258.222 142.799 256.864 141.682 256.864 141.682C256.864 141.682 254.121 137.247 254.121 136.319C254.121 135.392 251.855 131.498 251.855 131.498C251.855 131.498 249.012 135.858 243.822 134.47C243.822 134.47 247.594 141.143 247.69 142.802C247.786 144.462 250.285 149.09 250.285 149.09C250.285 149.09 251.218 152.526 256.259 152.334C256.259 152.334 263.215 153.353 264.732 152.334C266.25 151.315 267.62 150.513 268.336 150.396C269.053 150.28 269.706 149.627 269.706 149.627V145.039L267.099 140.682Z" fill="#4C4981"/>
<path opacity="0.1" d="M258.382 145.039C258.382 145.039 259.607 148.63 258.822 149.015L258.382 145.039Z" fill="black"/>
<path opacity="0.1" d="M299.137 168.011C292.622 168.175 278.267 168.38 277.626 167.064C277.483 166.73 277.407 166.379 277.402 166.026L298.685 166.91L299.137 168.011Z" fill="black"/>
<path opacity="0.1" d="M300.739 200.213C300.739 200.213 300.339 201.09 299.79 202.242C297.087 202.112 293.507 201.977 290.108 201.958C288.906 201.958 287.729 201.958 286.616 201.989C284.253 202.046 282.211 202.198 280.91 202.488C279.264 202.887 277.545 203.062 275.824 203.005C275.384 201.671 275.08 200.712 275.08 200.712C275.08 200.712 282.48 200.223 286.968 200.052L287.321 198.09L300.739 200.213Z" fill="black"/>
<path d="M306.469 186.092L305.636 187.48C305.636 187.48 305.52 187.893 305.372 188.549C305.06 189.963 304.571 192.512 304.756 194.544C305 197.516 304.215 202.027 304.215 202.027C304.215 202.027 286.196 200.831 280.91 202.027C275.624 203.223 273.021 202.027 273.021 202.027C273.021 202.027 273.662 197.553 272.092 195.238C271.023 193.66 270.27 186.618 270.246 181.987C270.246 179.851 270.383 178.233 270.723 177.904C271.8 176.863 276.401 166.446 276.401 166.446L277.45 166.49L280.253 166.607L296.19 167.269L298.693 167.373L298.957 168.004L306.469 186.092Z" fill="#444053"/>
<path d="M314.402 181.46L314.55 182.697C314.55 182.697 306.658 180.671 307.058 178.182C307.458 175.693 307.058 175.974 307.058 175.974L313.401 176.397L314.402 181.46Z" fill="#4C4981"/>
<path opacity="0.1" d="M314.402 181.46L314.55 182.697C314.55 182.697 306.658 180.671 307.058 178.182C307.458 175.693 307.058 175.974 307.058 175.974L313.401 176.397L314.402 181.46Z" fill="black"/>
<path opacity="0.1" d="M263.647 146.036C264.453 146.576 265.403 146.965 266.426 147.175C266.13 147.125 265.855 147.016 265.625 146.86C265.061 146.544 264.524 146.201 263.98 145.866C263.539 145.595 262.991 145.144 262.45 145.033C262.804 145.399 263.205 145.736 263.647 146.036Z" fill="black"/>
<path opacity="0.1" d="M263.768 147.661C264.021 147.887 264.227 148.144 264.376 148.422C264.629 149.207 264.614 150.031 264.332 150.81L263.067 148.406C262.847 147.996 262.626 147.586 262.362 147.194C262.246 147.027 261.517 146.33 261.601 146.185C261.825 145.775 263.531 147.431 263.768 147.661Z" fill="black"/>
<path opacity="0.1" d="M299.073 160.975C299.936 160.893 300.743 160.595 301.376 160.126C300.074 160.256 298.841 160.66 297.56 160.871C296.37 161.089 295.123 160.998 294.004 160.612C295.477 161.18 297.504 161.199 299.073 160.975Z" fill="black"/>
<path opacity="0.1" d="M295.393 153.911C295.16 153.939 294.923 153.892 294.733 153.782C293.756 153.34 292.792 152.88 291.842 152.4C290.917 151.93 289.799 151.453 289.011 150.86C290.953 152.242 292.763 153.41 295.393 153.911Z" fill="black"/>
<path opacity="0.1" d="M298.108 162.095C298.621 162.113 299.135 162.08 299.638 161.997C300.146 161.914 300.596 161.682 300.895 161.347C300.714 161.314 300.523 161.338 300.363 161.414C298.811 161.928 297.107 162.089 295.445 161.877C296.242 162.146 297.263 162.092 298.108 162.095Z" fill="black"/>
<path opacity="0.1" d="M288.834 180.009C287.815 180.251 286.767 180.413 285.707 180.492C284.882 180.522 284.055 180.509 283.232 180.454L279.228 180.255L277.226 180.154C276.99 180.154 276.025 180.154 276.501 179.779C276.741 179.596 278.079 179.712 278.423 179.703C279.088 179.686 279.755 179.677 280.425 179.674C281.751 179.674 283.08 179.674 284.406 179.738C285.891 179.794 287.353 179.883 288.834 180.009Z" fill="black"/>
<path opacity="0.1" d="M284.193 181.571C283.513 181.548 282.636 181.867 281.935 181.937C281.151 182.01 280.361 182.034 279.572 182.009C278.012 181.98 276.47 181.732 275.02 181.277C278.075 181.4 281.138 181.473 284.193 181.571Z" fill="black"/>
<path opacity="0.1" d="M275.616 183.224C275.912 183.271 276.204 183.334 276.489 183.413C278.179 183.792 279.977 183.457 281.695 183.123C281.266 183.631 280.493 183.848 279.721 183.987C278.464 184.238 277.153 184.276 275.877 184.098C275.476 184.035 274.471 183.921 274.275 183.593C273.946 183.11 275.24 183.176 275.616 183.224Z" fill="black"/>
<path opacity="0.1" d="M285.09 185.713C285.597 185.795 286.097 185.9 286.588 186.029C288.49 186.401 290.464 185.89 292.374 185.546C294.67 185.135 297.025 184.963 299.378 185.035C298.957 185.035 298.289 185.325 297.876 185.423C297.336 185.552 296.787 185.672 296.238 185.779C295.161 185.988 294.068 186.158 292.967 186.281C290.744 186.534 288.494 186.611 286.252 186.511C285.227 186.467 283.449 186.549 282.572 186.142C283.33 185.787 284.214 185.637 285.09 185.713Z" fill="black"/>
<path opacity="0.1" d="M285.807 138.13C285.807 138.13 285.903 141.683 285.171 143.304C284.938 143.809 284.578 144.74 284.185 145.784C283.757 146.942 283.288 148.239 282.928 149.254C282.568 150.27 282.327 150.952 282.327 150.952C282.327 150.952 280.674 161.565 280.245 166.623C280.245 166.711 280.245 166.802 280.221 166.888C280.197 167.171 280.157 167.468 280.097 167.774C279.144 172.797 273.646 180.542 271.8 181.161C271.224 181.369 270.699 181.654 270.246 182.003C270.246 179.867 270.383 178.249 270.723 177.92C271.8 176.879 276.401 166.462 276.401 166.462L277.45 166.506C277.426 166.361 277.41 166.19 277.402 166.042C277.318 164.032 278.507 160.947 278.507 160.947C278.507 160.947 279.192 154.773 279.192 154.504C279.192 154.236 278.603 149.911 278.603 149.911L279.781 146.44L282.035 145.197C282.315 142.519 282.984 139.266 284.582 138.379C285.382 137.886 286.02 137.249 286.444 136.521C286.76 136.556 286.184 136.335 286.184 136.335L285.807 138.13Z" fill="black"/>
<path d="M286.668 136.139C286.26 136.029 285.826 135.992 285.397 136.03C284.969 136.068 284.556 136.181 284.189 136.36C283.06 136.991 280.858 136.938 280.269 136.824C279.681 136.71 273.562 136.089 273.061 136.243C272.561 136.398 271.592 135.704 270.955 136.631C270.318 137.559 270.026 138.058 269.389 138.288C268.753 138.518 267.624 139.253 267.788 139.408C267.952 139.562 266.186 140.487 266.186 140.487L269.758 149.636C269.758 149.636 267.455 161.209 266.33 162.212C265.205 163.215 255.214 176.217 258.79 178.532C261.621 180.286 264.617 181.868 267.752 183.265C268.152 183.419 269.562 181.337 271.52 180.681C273.478 180.025 279.552 171.342 279.929 166.405C280.305 161.467 282.035 150.472 282.035 150.472C282.035 150.472 284.141 144.453 284.874 142.831C285.607 141.209 285.511 137.657 285.511 137.657L286.668 136.139Z" fill="#4C4981"/>
<path opacity="0.1" d="M306.469 186.092L305.636 187.48C305.636 187.48 305.52 187.893 305.372 188.549C305.224 188.535 305.084 188.485 304.972 188.407C303.746 187.634 296.563 181.81 296.206 176.639C295.954 172.825 296.074 169.538 296.154 168.074C296.178 167.613 296.202 167.335 296.202 167.275C296.202 167.275 301.784 161.95 301.148 160.063C300.511 158.177 299.041 148.074 299.041 148.074L298.825 146.749L298.453 144.509L297.564 139.089L298.485 139.259C298.641 139.429 298.829 139.579 299.041 139.704L299.994 144.471L303.302 147.342L303.843 164.821L302.321 167.944C302.321 167.944 301.084 167.988 299.154 168.036H298.965L306.469 186.092Z" fill="black"/>
<path d="M309.553 157.24C309.553 157.24 308.183 156.814 308.087 157.24C307.991 157.666 307.743 158.587 307.743 158.587C307.743 158.587 307.987 160.827 306.942 161.713C305.897 162.6 305.741 166.342 305.741 166.342C305.741 166.342 304.091 170.046 304.872 171.203C305.156 171.623 305.596 173.727 306.037 176.251C306.317 177.829 306.594 179.561 306.838 181.145C307.282 184.022 307.615 186.404 307.615 186.404C307.615 186.404 306.73 188.95 305.504 188.177C304.279 187.404 297.095 181.58 296.743 176.409C296.503 172.778 296.599 169.623 296.679 168.067C296.711 167.408 296.743 167.036 296.743 167.036C296.743 167.036 302.325 161.71 301.688 159.82C301.052 157.931 299.582 147.832 299.582 147.832L299.326 146.27L299.049 144.591L298.985 144.222L298.1 138.859C298.257 138.887 303.75 139.865 304.475 140.436C305.2 141.007 309.681 141.825 309.681 141.825C310.357 141.969 310.971 142.254 311.46 142.649C311.948 143.044 312.294 143.535 312.46 144.071C312.504 144.178 312.536 144.292 312.568 144.408C313.157 146.648 312.968 146.917 313.369 147.305C313.769 147.693 309.553 157.24 309.553 157.24Z" fill="#4C4981"/>
<path opacity="0.1" d="M306.87 181.142C304.868 180.826 301.896 180.097 301.965 178.488C302.025 176.983 304.323 176.441 306.065 176.248C306.345 177.819 306.622 179.558 306.87 181.142Z" fill="black"/>
<path d="M313.08 180.34C313 180.476 312.68 180.593 312.224 180.697C311.152 180.898 310.065 181.038 308.968 181.116C308.968 181.116 302.161 180.69 302.257 178.258C302.329 176.513 305.404 176.049 307.13 175.945C307.512 175.917 307.896 175.905 308.279 175.908C308.279 175.908 313.373 179.842 313.08 180.34Z" fill="#AE6E79"/>
<path opacity="0.1" d="M313.08 180.34C313 180.476 312.68 180.593 312.224 180.697C310.45 178.826 307.975 176.425 306.762 176.214L307.13 175.945C307.512 175.917 307.896 175.905 308.279 175.908C308.279 175.908 313.373 179.842 313.08 180.34Z" fill="black"/>
<path d="M311.367 147.046L313.369 147.279C314.092 148.283 314.894 149.249 315.771 150.172C316.309 150.699 316.618 151.349 316.652 152.024C316.652 152.024 319.591 155.457 320.52 155.842C321.449 156.227 322.871 158.852 322.871 158.852C322.871 158.852 325.173 160.047 325.173 161.398C325.214 162.524 325.361 163.646 325.614 164.755C325.666 164.947 325.274 167.342 324.293 168.541C323.311 169.739 322.33 172.383 322.382 172.857C322.435 173.33 319.64 175.791 318.859 176.56C318.207 177.28 317.634 178.042 317.145 178.838L314.55 182.697C314.55 182.697 309.064 176.33 307.058 175.983C307.058 175.983 309.308 174.286 310.434 173.977C311.559 173.667 312.64 171.137 312.688 170.544C312.736 169.951 313.717 168.036 314.742 167.705C315.767 167.373 316.312 167.01 315.871 166.468C315.431 165.925 315.871 164.89 315.871 164.89C315.871 164.89 312.98 161.88 312.588 160.158C312.196 158.435 309.553 157.265 309.553 157.265L308.035 154.331L311.367 147.046Z" fill="#4C4981"/>
<path opacity="0.1" d="M318.65 161.448C319.758 160.711 321.153 160.295 322.603 160.268C321.674 160.395 320.697 160.555 320.016 161.067C319.749 161.288 319.509 161.529 319.299 161.786C319.067 162.048 317.177 163.941 316.897 163.641C316.428 163.202 318.27 161.704 318.65 161.448Z" fill="black"/>
<path opacity="0.1" d="M314.214 159.622C314.513 159.601 314.801 159.518 315.047 159.381C315.292 159.244 315.487 159.058 315.611 158.842C315.85 158.408 315.997 157.945 316.048 157.473C316.191 156.683 316.393 155.9 316.652 155.129C316.73 154.976 316.763 154.812 316.748 154.648C316.734 154.484 316.672 154.325 316.568 154.182C316.461 153.936 316.315 153.701 316.136 153.482C315.775 153.798 315.671 154.533 315.523 154.955C315.339 155.479 315.171 156.006 315.01 156.533C314.926 156.785 314.262 159.622 314.214 159.622Z" fill="black"/>
<path opacity="0.1" d="M312.48 144.046C312.282 144.249 312.055 144.433 311.803 144.595C311.002 145.096 309.941 145.519 309.841 146.311C309.869 146.568 309.828 146.827 309.721 147.071C309.465 147.418 308.836 147.387 308.335 147.32C307.913 147.29 307.508 147.173 307.162 146.98C306.638 146.626 306.589 145.995 306.189 145.551C305.946 145.321 305.639 145.139 305.291 145.018C304.944 144.897 304.566 144.841 304.187 144.853C303.438 144.834 302.693 144.967 301.944 144.992C301.463 145.011 300.981 144.986 300.507 144.916C300.351 144.898 300.195 144.872 300.042 144.841C299.708 144.776 299.381 144.688 299.065 144.579C298.902 144.528 298.743 144.469 298.589 144.402C298.088 144.199 297.623 143.945 297.207 143.645C296.475 143.115 295.866 142.383 295.926 141.597C295.962 141.115 296.238 140.67 296.326 140.193C296.627 138.831 295.478 137.543 294.232 136.568C293.736 136.18 293.207 135.805 292.711 135.411C291.937 134.849 291.327 134.162 290.921 133.398C290.587 132.584 290.477 131.723 290.6 130.874C290.713 130.012 290.744 129.145 290.692 128.28C290.324 125.214 287 122.863 283.677 121.586L283.529 121.526C284.515 120.634 285.728 119.916 287.09 119.42C288.452 118.923 289.932 118.658 291.432 118.642C292.933 118.626 294.421 118.86 295.799 119.328C297.178 119.797 298.415 120.489 299.431 121.359C300.446 122.23 301.218 123.259 301.694 124.381C302.17 125.502 302.341 126.69 302.195 127.867C302.049 129.044 301.59 130.183 300.847 131.211C300.104 132.238 299.095 133.131 297.884 133.83C297.848 133.928 297.816 134.026 297.788 134.12C297.019 136.543 297.528 138.013 298.1 138.824C298.257 138.853 303.75 139.831 304.475 140.402C305.2 140.973 309.681 141.79 309.681 141.79C310.362 141.933 310.981 142.218 311.474 142.615C311.966 143.012 312.314 143.506 312.48 144.046Z" fill="black"/>
<path d="M282.824 119.301C283.044 119.103 283.376 119.002 283.601 118.809C284.293 118.216 283.601 117.247 283.853 116.465C284.125 115.597 285.479 115.219 286.608 115.31C287.737 115.402 288.794 115.812 289.923 115.913C291.677 116.068 293.375 115.468 295.085 115.118C296.795 114.768 298.861 114.749 300.038 115.78C301.216 116.812 301.136 118.569 302.601 119.317C303.278 119.661 304.131 119.699 304.864 119.948C305.665 120.272 306.33 120.773 306.778 121.39C307.938 122.825 308.448 124.527 308.227 126.22C308.103 127.135 307.767 128.025 307.631 128.94C307.492 129.89 307.574 130.852 307.871 131.779C308.179 132.726 308.848 133.748 310.045 134.051C310.322 134.099 310.591 134.172 310.846 134.268C311.539 134.609 311.447 135.411 311.27 136.035L310.558 138.625C311.242 139.036 312.308 138.859 312.96 139.291C313.222 139.479 313.415 139.719 313.521 139.985C313.843 140.71 313.878 141.494 313.621 142.234C313.364 142.975 312.828 143.636 312.083 144.131C311.282 144.632 310.221 145.055 310.121 145.844C310.152 146.101 310.111 146.361 310.001 146.604C309.749 146.951 309.116 146.92 308.616 146.854C308.195 146.823 307.791 146.705 307.446 146.513C306.918 146.159 306.874 145.528 306.473 145.084C306.23 144.854 305.922 144.672 305.575 144.551C305.228 144.431 304.85 144.374 304.471 144.386C303.718 144.367 302.978 144.5 302.225 144.528C300.488 144.584 298.793 144.102 297.504 143.184C296.767 142.651 296.162 141.922 296.218 141.134C296.254 140.654 296.531 140.206 296.619 139.73C296.915 138.37 295.77 137.08 294.524 136.105C293.279 135.13 291.818 134.231 291.209 132.934C290.448 131.328 291.185 129.536 290.981 127.832C290.612 124.763 287.293 122.415 283.965 121.134C283.224 120.835 281.963 120.074 282.824 119.301Z" fill="#444053"/>
<path opacity="0.1" d="M309.012 145.797C308.484 145.44 308.439 144.812 308.039 144.367C307.795 144.138 307.488 143.956 307.141 143.834C306.794 143.713 306.416 143.656 306.037 143.667C305.284 143.648 304.539 143.781 303.79 143.809C302.048 143.869 300.345 143.385 299.053 142.462C298.317 141.932 297.716 141.2 297.772 140.414C297.808 139.932 298.084 139.484 298.172 139.01C298.473 137.647 297.324 136.357 296.078 135.382C294.833 134.407 293.375 133.508 292.763 132.211C292.006 130.609 292.763 128.817 292.538 127.11C292.166 124.04 288.846 121.693 285.523 120.412C284.746 120.112 283.485 119.352 284.346 118.579C284.562 118.38 284.894 118.279 285.118 118.087C285.811 117.497 285.118 116.525 285.375 115.746C285.424 115.591 285.509 115.444 285.627 115.313C284.79 115.437 284.025 115.809 283.821 116.44C283.577 117.222 284.261 118.191 283.569 118.784C283.344 118.976 283.012 119.077 282.792 119.273C281.931 120.046 283.192 120.809 283.969 121.106C287.297 122.387 290.616 124.737 290.985 127.804C291.189 129.511 290.452 131.303 291.213 132.909C291.822 134.202 293.283 135.117 294.529 136.079C295.774 137.042 296.931 138.341 296.623 139.704C296.454 140.166 296.32 140.635 296.222 141.108C296.166 141.894 296.771 142.626 297.508 143.156C298.798 144.08 300.499 144.564 302.241 144.503C302.994 144.475 303.734 144.345 304.487 144.361C304.867 144.35 305.244 144.407 305.591 144.529C305.938 144.65 306.245 144.832 306.489 145.062C306.89 145.506 306.934 146.137 307.462 146.491C307.808 146.682 308.211 146.799 308.632 146.828C309.132 146.901 309.765 146.926 310.017 146.582C310.107 146.442 310.146 146.285 310.129 146.128C309.726 146.097 309.341 145.983 309.012 145.797Z" fill="black"/>
<path d="M250.721 127.047H223.024V105.543H250.741L250.721 127.047ZM250.321 94.6232H223.424C223.424 61.206 263.739 63.1589 263.739 42.0176C263.739 30.3727 251.642 21.0435 236.863 21.0435C222.083 21.0435 209.99 31.1014 209.99 42.3488H183.113C183.101 36.7848 184.483 31.2736 187.179 26.1313C189.876 20.989 193.835 16.3167 198.829 12.3823C203.822 8.44797 209.752 5.32894 216.279 3.20409C222.806 1.07924 229.801 -0.00961809 236.863 -5.96825e-05C266.55 -5.96825e-05 290.612 18.6615 290.612 42.0176C290.612 68.4529 250.301 71.4627 250.301 94.6232H250.321Z" fill="#EDAD00"/>
<path opacity="0.1" d="M112.577 120.642H105.433V115.083H112.577V120.642ZM112.469 112.282H105.541C105.541 103.669 115.933 104.17 115.933 98.7153C115.929 98.0016 115.747 97.2954 115.397 96.6372C115.046 95.9789 114.535 95.3815 113.892 94.879C113.248 94.3766 112.486 93.9789 111.647 93.7087C110.809 93.4386 109.911 93.3012 109.005 93.3046C107.176 93.3378 105.434 93.9283 104.145 94.9518C102.856 95.9754 102.121 97.3526 102.094 98.7942H95.1663C95.2122 95.9297 96.6851 93.1942 99.2672 91.1774C101.849 89.1607 105.334 88.0242 108.97 88.013C112.606 88.0018 116.102 89.1169 118.704 91.1177C121.306 93.1185 122.806 95.8449 122.88 98.709C122.86 105.524 112.469 106.3 112.469 112.269V112.282Z" fill="#EDAD00"/>
<path opacity="0.1" d="M166.667 159.262H159.523V153.719H166.667V159.262ZM166.563 150.904H159.636C159.636 142.288 170.027 142.793 170.027 137.338C170.023 136.625 169.841 135.919 169.491 135.261C169.14 134.602 168.629 134.005 167.986 133.503C167.342 133.001 166.58 132.603 165.741 132.334C164.903 132.064 164.005 131.927 163.099 131.931C161.262 131.957 159.51 132.545 158.213 133.57C156.917 134.596 156.178 135.979 156.152 137.427H149.224C149.27 134.562 150.743 131.827 153.325 129.81C155.908 127.793 159.392 126.657 163.028 126.645C166.664 126.634 170.16 127.749 172.762 129.75C175.364 131.751 176.864 134.477 176.938 137.341C176.95 144.156 166.563 144.935 166.563 150.904Z" fill="#EDAD00"/>
<path opacity="0.1" d="M199.559 90.8942H194.381V86.8843H199.559V90.8942ZM199.482 84.8336H194.461C194.461 78.5931 201.993 78.9559 201.993 75.0059C201.99 74.4888 201.858 73.9773 201.604 73.5005C201.349 73.0238 200.979 72.5911 200.512 72.2273C200.046 71.8634 199.493 71.5755 198.886 71.3799C198.278 71.1843 197.628 71.0849 196.972 71.0874C195.643 71.1086 194.376 71.5357 193.44 72.2785C192.503 73.0213 191.969 74.0219 191.95 75.069H186.929C186.918 72.9704 187.966 70.9545 189.842 69.4647C191.718 67.9749 194.268 67.1332 196.932 67.1248C199.595 67.1165 202.154 67.9421 204.045 69.4201C205.936 70.898 207.004 72.9073 207.015 75.0059C207.007 79.9434 199.482 80.5081 199.482 84.8336Z" fill="#EDAD00"/>
<path opacity="0.1" d="M287.989 96.5541H285.062V94.2825H287.989V96.5541ZM287.945 93.131H285.09C285.09 89.6037 289.347 89.8088 289.347 87.5751C289.347 87.2829 289.273 86.9937 289.13 86.7241C288.988 86.4545 288.778 86.2099 288.515 86.0045C288.251 85.7991 287.938 85.6369 287.594 85.5274C287.251 85.418 286.883 85.3633 286.512 85.3666C285.761 85.3788 285.045 85.6201 284.516 86.0397C283.986 86.4593 283.684 87.0244 283.673 87.6161H280.834C280.867 86.4503 281.477 85.3407 282.533 84.5237C283.589 83.7068 285.008 83.2471 286.488 83.2426C287.968 83.2381 289.392 83.6891 290.457 84.4995C291.521 85.31 292.141 86.4158 292.186 87.5814C292.202 90.3546 287.945 90.6859 287.945 93.131Z" fill="#EDAD00"/>
<path opacity="0.1" d="M332.742 199.869H329.814V197.598H332.742V199.869ZM332.698 196.446H329.859C329.859 192.916 334.119 193.124 334.119 190.89C334.114 190.301 333.812 189.737 333.28 189.323C332.747 188.909 332.028 188.679 331.28 188.682C330.529 188.693 329.813 188.934 329.283 189.354C328.753 189.774 328.451 190.339 328.441 190.931H325.602C325.635 189.766 326.245 188.656 327.301 187.839C328.357 187.022 329.777 186.562 331.257 186.558C332.737 186.553 334.161 187.004 335.225 187.815C336.289 188.625 336.91 189.731 336.954 190.897C336.97 193.683 332.714 194.001 332.714 196.446H332.698Z" fill="#EDAD00"/>
</g>
<defs>
<linearGradient id="paint0_linear" x1="279.18" y1="262.508" x2="279.18" y2="114.619" gradientUnits="userSpaceOnUse">
<stop stop-color="#808080" stop-opacity="0.25"/>
<stop offset="0.54" stop-color="#808080" stop-opacity="0.12"/>
<stop offset="1" stop-color="#808080" stop-opacity="0.1"/>
</linearGradient>
<clipPath id="clip0">
<rect width="402" height="264" fill="white"/>
</clipPath>
</defs>
</svg>
