<svg width="586" height="385" viewBox="0 0 586 385" fill="none" xmlns="http://www.w3.org/2000/svg">
<g clip-path="url(#clip0)">
<path opacity="0.1" d="M543.419 315.915C541.59 317.522 539.72 319.083 537.809 320.598C537.488 320.858 537.156 321.108 536.83 321.373C530.015 326.655 522.86 331.484 515.412 335.83L514.02 336.64C513.683 336.844 513.352 337.032 513 337.221C505.218 341.71 497.145 345.843 488.976 349.757L488.889 349.803L488.272 350.093C481.683 353.249 474.996 356.269 468.21 359.154L468.047 359.215C464.987 360.502 461.928 361.756 458.868 362.976C457.619 363.485 456.364 363.959 455.11 364.443C452.748 365.345 450.382 366.232 447.996 367.083L447.7 367.195L447.19 367.373L446.552 367.608C440.328 369.83 434.02 371.882 427.628 373.764L427.516 373.794C423.059 375.092 418.573 376.293 414.058 377.397L413.441 377.55C406.812 379.15 400.075 380.526 393.298 381.627L391.737 381.876C386.781 382.654 381.79 383.29 376.765 383.782C348.519 386.508 319.936 384.292 291.863 380.49C235.176 372.806 179.239 358.399 128.223 335.82C118.432 331.488 108.831 326.851 99.4207 321.908C99.3442 321.867 99.2779 321.826 99.2014 321.791C93.5681 318.832 88.0113 315.749 82.531 312.542C80.9246 311.614 79.3285 310.666 77.7425 309.713C75.7911 308.538 73.8481 307.349 71.9137 306.146C69.3639 304.556 66.8142 302.926 64.2644 301.259L63.0711 300.464L62.6121 300.153C61.9645 299.72 61.327 299.287 60.6845 298.849C36.7166 282.542 15.3443 262.78 5.24723 238.05C-6.42055 209.513 1.0452 173.332 29.9444 156.464C39.8783 150.655 51.4237 147.501 63.0915 144.897L64.2848 144.632C66.2583 144.199 68.2318 143.781 70.1952 143.363C77.0745 141.905 83.9895 140.458 90.8382 138.843C94.4079 138.002 97.9418 137.12 101.455 136.167L102.894 135.77C111.367 133.498 119.654 130.582 127.682 127.046H127.733C128.595 126.664 129.447 126.266 130.283 125.858C130.824 125.604 131.364 125.349 131.905 125.069C140.574 120.757 149.753 114.78 156.816 107.656C157.382 107.085 157.933 106.504 158.468 105.923C158.882 105.47 159.289 105.011 159.682 104.553C164.634 98.784 168.061 92.3784 168.713 85.5805C168.933 83.2962 168.83 80.9924 168.407 78.7367C167.607 74.4613 166.832 70.2776 166.261 66.1957C165.195 58.5264 164.833 51.1934 166.312 44.1254C167.816 36.9198 171.228 29.9843 177.74 23.2577C178.722 22.2385 179.781 21.2194 180.917 20.2002C186.183 15.5831 192.142 11.8207 198.576 9.05037C199.372 8.71064 200.173 8.37092 200.978 8.03119C218.868 0.795018 240.362 -0.713365 260.444 0.28543C279.206 1.25028 297.849 3.84194 316.162 8.03119C317.615 8.35733 319.069 8.69875 320.512 9.05037C336.09 12.8214 351.419 17.5578 366.408 23.2322C405.358 37.8728 442.121 58.2003 476.466 80.6324C476.803 80.8515 477.14 81.0707 477.486 81.2949C478.921 82.2291 480.347 83.1668 481.765 84.1078C484.508 85.9253 487.228 87.7548 489.924 89.5961L491.745 90.8344C492.642 91.4459 493.535 92.0591 494.422 92.674L497.155 94.5646C497.284 94.6419 497.407 94.7288 497.523 94.8245L499.848 96.4348C501.194 97.3724 502.53 98.3152 503.871 99.263L506.748 101.301C507.344 101.729 507.946 102.152 508.543 102.586L511.602 104.818L512.286 105.327C512.429 105.429 512.571 105.531 512.709 105.643L512.796 105.699C521.088 111.779 529.181 118.082 536.764 124.763L537.743 125.629L537.845 125.721C538.671 126.455 539.497 127.199 540.308 127.948C550.211 136.957 559.084 146.64 566.336 157.341C599.646 206.771 589.758 275.214 543.419 315.915Z" fill="#EDAD00"/>
<path d="M413.859 180.272C413.859 180.272 416.827 164.73 426.363 164.648L433.34 178.988L428.648 182.173C428.648 182.173 418.571 182.494 413.859 180.272Z" fill="#65617D"/>
<path opacity="0.1" d="M433.319 178.968L428.648 182.173C428.648 182.173 421.539 182.397 416.46 181.154C415.566 180.947 414.695 180.651 413.859 180.272C413.859 180.272 413.859 180.186 413.91 180.023C413.909 180.002 413.909 179.982 413.91 179.962C414.35 178.012 414.954 176.102 415.716 174.254C416.006 173.556 416.343 172.838 416.7 172.119C418.097 169.433 420.06 166.799 422.748 165.494C423.741 165.008 424.821 164.726 425.925 164.664H426.21H426.348L426.506 164.98L428.862 169.826L433.319 178.968Z" fill="black"/>
<path d="M512.526 243.538C512.526 243.538 522.546 242.58 523.428 243.298C524.311 244.017 530.002 247.706 533.373 245.383C536.743 243.059 534.494 234.967 534.494 234.646C534.494 234.325 534.173 222.869 534.173 222.869L528.161 214.777L520.624 200.6L505.233 199.071L505.631 221.585L505.554 233.122L512.526 243.538Z" fill="#65617D"/>
<path opacity="0.1" d="M512.526 243.538C512.526 243.538 522.546 242.58 523.428 243.298C524.311 244.017 530.002 247.706 533.373 245.383C536.743 243.059 534.494 234.967 534.494 234.646C534.494 234.325 534.173 222.869 534.173 222.869L528.161 214.777L520.624 200.6L505.233 199.071L505.631 221.585L505.554 233.122L512.526 243.538Z" fill="black"/>
<path d="M424.339 164.23C424.339 164.23 423.549 174.004 417.429 174.157C417.429 174.157 415.706 173.138 413.38 171.38C408.026 167.38 399.535 159.685 401.881 152.525C405.246 142.272 421.601 161.188 421.601 161.188L422.86 162.595L424.339 164.23Z" fill="#A5636D"/>
<path opacity="0.1" d="M424.339 164.23C424.339 164.23 423.549 174.004 417.429 174.157C417.429 174.157 415.705 173.138 413.38 171.38L412.87 170.712C413.904 171.254 415.044 171.562 416.21 171.614C417.74 171.645 419.464 171.105 420.57 168.868C421.21 167.61 421.774 166.315 422.258 164.99C422.547 164.212 422.752 163.406 422.87 162.584L424.339 164.23Z" fill="black"/>
<path d="M421.692 181.934L420.32 180.171L415.731 174.234L413.349 171.202C414.382 171.741 415.52 172.047 416.684 172.099C418.214 172.134 419.938 171.589 421.045 169.352C421.686 168.095 422.25 166.8 422.733 165.474C423.492 163.313 423.477 162.202 423.207 161.825C422.937 161.448 424.91 163.278 425.859 164.18L425.894 164.21L426.333 164.628L426.501 164.954L428.821 169.597C428.821 169.597 428.821 169.663 428.821 169.79C429.036 171.263 429.816 180.609 421.692 181.934Z" fill="#E7EFFD"/>
<path d="M510.282 118.403L498.415 131.066C498.415 131.066 483.188 124.951 484.789 122.913C485.411 122.108 485.299 119.565 484.952 116.757C484.391 112.319 483.188 107.207 483.188 107.207C483.188 107.207 509.803 102.881 507.554 107.371C506.738 109.006 506.875 110.938 507.385 112.691C508.04 114.737 509.018 116.665 510.282 118.403Z" fill="#A5636D"/>
<path opacity="0.1" d="M507.554 107.35C506.738 108.986 506.345 109.144 506.855 110.917C503.377 114.647 498.951 118.729 493.448 118.729C490.5 118.735 487.592 118.054 484.952 116.742C484.391 112.303 483.188 107.192 483.188 107.192C483.188 107.192 509.803 102.861 507.554 107.35Z" fill="black"/>
<path d="M512.531 99.1762C512.531 104.234 510.52 109.084 506.942 112.66C503.363 116.236 498.509 118.245 493.448 118.245C488.387 118.245 483.534 116.236 479.955 112.66C476.376 109.084 474.366 104.234 474.366 99.1762C474.366 99.0845 474.366 98.9928 474.366 98.9011C474.475 93.8933 476.552 89.1298 480.148 85.6399C483.744 82.1499 488.569 80.2139 493.581 80.25C498.594 80.2862 503.391 82.2916 506.935 85.8331C510.48 89.3745 512.488 94.1675 512.526 99.1762H512.531Z" fill="#A5636D"/>
<path opacity="0.1" d="M515.29 224.963C512.74 224.963 504.346 225.055 494.942 225.203H494.825L491.72 225.254H491.623C480.47 225.432 469.48 223.256 465.069 223.669C455.686 224.551 468.435 215.006 468.435 215.006C475.425 216.701 482.614 217.428 489.802 217.167L492.5 217.024C501.021 216.545 509.588 215.745 514.066 214.4C514.377 216.886 514.831 220.489 515.29 224.963Z" fill="black"/>
<path d="M515.29 224.484C512.74 224.484 504.346 224.571 494.942 224.724H494.825L491.72 224.775H491.623C480.47 224.953 469.48 222.777 465.069 223.19C455.686 224.066 468.435 214.527 468.435 214.527C475.425 216.221 482.614 216.947 489.802 216.683L492.5 216.545C501.021 216.066 509.588 215.261 514.066 213.921C514.377 216.407 514.831 220.02 515.29 224.484Z" fill="#5F5D7E"/>
<path opacity="0.1" d="M488.313 123.708L473.56 130.598L462.183 218.543C462.183 218.543 468.914 215.485 472.764 217.421C476.615 219.358 488.476 217.585 488.476 217.585C488.476 217.585 497.145 217.075 498.415 218.064C499.685 219.052 514.775 214.058 514.775 214.058C514.775 214.058 517.498 207.969 515.412 207.011C513.326 206.053 516.055 196.579 516.055 196.579L514.775 133.13L512.225 124.977L505.33 120.813L498.277 126.419L494.912 126.903L488.313 123.708Z" fill="black"/>
<path d="M488.313 122.73L473.565 129.619L462.183 217.585C462.183 217.585 468.914 214.527 472.764 216.463C476.615 218.4 488.476 216.621 488.476 216.621C488.476 216.621 497.145 216.142 498.415 217.1C499.685 218.058 514.775 213.095 514.775 213.095C514.775 213.095 517.498 207.011 515.412 206.047C513.326 205.084 516.055 195.631 516.055 195.631L514.775 132.182L512.225 124.029L505.33 119.861L498.277 125.466L494.912 125.945L488.313 122.73Z" fill="#E7EFFD"/>
<path opacity="0.1" d="M488.073 126.816C488.073 126.816 492.326 131.861 492.245 132.906C492.163 133.951 492.005 136.427 492.005 136.427L488.823 142.919C488.823 142.919 487.058 151.012 487.058 152.693C487.058 154.375 484.254 168.954 484.254 168.954L480.888 191.376L476.635 220.78L480.964 228.23L486.094 223.903L492.902 171.518L494.346 161.183C494.346 161.183 495.875 142.598 495.875 140.677C495.875 138.756 494.993 133.706 494.993 133.706C494.993 133.706 496.039 128.901 500.368 127.78C504.698 126.658 500.047 127.535 500.047 127.535L497.563 125.532L495.396 126.414C495.396 126.414 489.358 124.574 488.073 126.816Z" fill="black"/>
<path d="M487.594 126.337C487.594 126.337 491.842 131.382 491.765 132.422C491.689 133.461 491.521 135.948 491.521 135.948L488.313 142.44C488.313 142.44 486.548 150.528 486.548 152.209C486.548 153.891 483.744 168.475 483.744 168.475L480.373 190.897L476.125 220.295L480.455 227.746L485.585 223.419L492.393 171.039L493.836 160.704C493.836 160.704 495.366 142.119 495.366 140.193C495.366 138.267 494.483 133.227 494.483 133.227C494.483 133.227 495.503 128.417 499.853 127.295C504.203 126.174 499.537 127.056 499.537 127.056L497.048 125.053L494.886 125.935C494.886 125.935 488.879 124.09 487.594 126.337Z" fill="#EDAD00"/>
<path opacity="0.1" d="M484.789 117.924C484.789 117.924 484.147 118.403 483.989 121.608C483.83 124.814 481.582 132.024 481.582 132.024C481.582 132.024 489.919 126.256 494.091 126.898L484.789 117.924Z" fill="black"/>
<path d="M484.789 116.961C484.789 116.961 484.147 117.445 483.989 120.645C483.83 123.845 481.582 131.061 481.582 131.061C481.582 131.061 489.919 125.293 494.091 125.935L484.789 116.961Z" fill="#E7EFFD"/>
<path opacity="0.1" d="M507.559 115.361L494.432 126.898C494.432 126.898 505.498 133.467 506.942 135.051C508.385 136.636 509.828 119.351 509.828 119.351L507.559 115.361Z" fill="black"/>
<path d="M508.038 114.398L494.891 125.935C494.891 125.935 505.952 132.503 507.395 134.088C508.839 135.673 510.282 118.383 510.282 118.383L508.038 114.398Z" fill="#E7EFFD"/>
<path opacity="0.1" d="M485.253 117.924C485.253 117.924 483.81 117.201 482.448 119.285C481.087 121.369 478.522 122.342 478.522 122.342C478.522 122.342 463.927 124.666 463.366 126.587L456.553 126.985C456.553 126.985 454.146 127.275 453.922 132.371C453.697 137.467 452.392 137.895 452.392 137.895C452.392 137.895 449.582 142.863 449.842 145.427C450.102 147.99 447.675 149.274 447.675 149.274L457.716 175.284C457.716 175.284 458.037 186.021 456.186 189.944C454.335 193.868 450.892 211.255 450.892 211.255C450.892 211.255 452.336 210.934 452.254 211.898C452.172 212.861 450.49 223.353 450.49 223.353C450.49 223.353 450.01 227.516 449.21 228.959C448.409 230.401 448.327 237.932 448.327 237.932L447.007 243.38C447.007 243.38 450.066 250.188 454.707 249.225C459.347 248.262 467.772 230.08 467.772 230.08L473.142 210.455L477.313 191.066L478.517 177.928L480.439 148.846L483.244 129.619C483.244 129.619 486.39 119.285 485.253 117.924Z" fill="black"/>
<path d="M484.789 116.961C484.789 116.961 483.346 116.242 481.984 118.327C480.623 120.411 478.052 121.384 478.052 121.384C478.052 121.384 463.463 123.708 462.902 125.629L456.089 126.032C456.089 126.032 453.682 126.353 453.442 131.398C453.202 136.443 451.912 136.927 451.912 136.927C451.912 136.927 449.107 141.895 449.362 144.458C449.617 147.022 447.2 148.301 447.2 148.301L457.205 174.32C457.205 174.32 457.527 185.057 455.676 188.981C453.824 192.905 450.387 210.292 450.387 210.292C450.387 210.292 451.831 209.971 451.749 210.934C451.667 211.898 449.984 222.39 449.984 222.39C449.984 222.39 449.505 226.553 448.704 227.995C447.904 229.438 447.822 236.969 447.822 236.969L446.547 242.442C446.547 242.442 449.607 249.25 454.243 248.292C458.878 247.334 467.313 229.142 467.313 229.142L472.683 209.518L476.854 190.153L478.052 177.016L479.98 147.939L482.785 128.712C482.785 128.712 485.911 118.327 484.789 116.961Z" fill="#65617D"/>
<path opacity="0.1" d="M433.319 178.968L428.648 182.173C428.648 182.173 421.539 182.397 416.46 181.154L413.87 180.007L413.36 179.778L413.895 179.946C416.577 180.741 418.673 180.726 420.31 180.176C426.894 177.964 426.165 167.105 425.92 164.648C425.92 164.404 425.879 164.246 425.869 164.185C425.868 164.174 425.868 164.164 425.869 164.154L425.91 164.215C425.997 164.365 426.098 164.506 426.21 164.638C426.302 164.748 426.401 164.852 426.506 164.949L428.827 169.591C428.827 169.591 428.827 169.658 428.827 169.785L433.319 178.968Z" fill="black"/>
<path d="M449.434 147.659L447.19 148.301L446.869 152.887C446.869 152.887 444.222 152.49 443.503 155.613C442.784 158.737 441.499 160.2 441.499 160.2C441.499 160.2 437.088 163.884 436.848 167.008L434.12 168.689C434.12 168.689 427.786 167.247 426.343 164.684C426.343 164.684 429.23 185.353 413.839 180.308C413.839 180.308 431.076 187.84 431.876 188.879C432.677 189.919 437.97 192.956 442.779 190.408C447.588 187.86 448.633 183.84 448.633 183.84C448.633 183.84 453.284 177.352 453.442 176.389C453.6 175.426 457.211 174.305 457.211 174.305L464.105 157.647L449.434 147.659Z" fill="#65617D"/>
<path opacity="0.1" d="M505.713 124.972L508.038 114.398C508.038 114.398 509.058 117.843 510.124 118.643C511.19 119.443 513.571 121.287 513.571 121.287C513.571 121.287 517.018 122.893 518.217 122.893C519.415 122.893 525.917 124.574 526.718 125.441C527.518 126.307 530.726 125.68 530.726 125.68C530.726 125.68 533.373 126.562 535.698 127.122C538.023 127.683 539.145 131.53 538.661 133.049C538.468 133.806 538.469 134.6 538.665 135.356C538.861 136.112 539.246 136.807 539.783 137.375C540.747 138.338 541.226 141.452 541.226 141.452C542.407 141.836 543.388 142.671 543.954 143.776C544.755 145.539 544.515 149.381 544.515 149.381L532.572 166.197C532.572 166.197 532.73 172.685 532.251 174.127C531.771 175.569 533.934 200.085 533.934 200.085L536.417 242.223C536.417 242.223 533.133 245.026 532.409 245.347C531.685 245.668 530.966 230.447 530.966 229.886C530.966 229.325 512.449 202.164 512.449 202.164C512.449 202.164 509.961 198.159 509.961 197.277C509.961 196.396 507.635 188.309 507.635 188.309L504.122 172.72L505.713 124.972Z" fill="black"/>
<path d="M545.51 148.489C545.51 149.04 545.479 149.407 545.479 149.407L533.541 166.223C533.541 166.223 533.704 172.715 533.225 174.157C532.944 174.993 533.556 183.615 534.122 190.694C534.525 195.789 534.908 200.111 534.908 200.111L535.958 217.987L537.386 242.254C537.386 242.254 534.102 245.057 533.383 245.378C532.664 245.699 531.94 230.477 531.94 229.912C531.94 229.346 513.408 202.185 513.408 202.185C513.408 202.185 510.924 198.174 510.924 197.293C510.924 196.411 508.599 188.319 508.599 188.319L505.075 172.7L506.676 124.951L508.038 114.377C508.038 114.377 510.042 117.827 511.098 118.622C512.153 119.417 514.54 121.267 514.54 121.267C514.54 121.267 517.987 122.872 519.191 122.872C520.394 122.872 526.886 124.554 527.692 125.42C528.497 126.287 531.7 125.66 531.7 125.66C531.7 125.66 534.342 126.541 536.667 127.102C538.992 127.662 540.114 131.51 539.635 133.028C539.44 133.785 539.441 134.58 539.637 135.336C539.833 136.093 540.219 136.788 540.757 137.355C541.716 138.313 542.2 141.432 542.2 141.432C543.38 141.817 544.36 142.652 544.928 143.755C545.474 145.019 545.525 147.241 545.51 148.489Z" fill="#65617D"/>
<path opacity="0.1" d="M458.873 362.976C457.624 363.485 456.369 363.959 455.115 364.443C451.183 363.297 447.511 361.946 447.511 361.946C451.315 362.082 455.108 362.426 458.873 362.976Z" fill="black"/>
<path opacity="0.1" d="M496.814 320.206C496.814 320.206 506.355 322.448 506.916 323.972L496.814 320.206Z" fill="black"/>
<path opacity="0.1" d="M460.015 327.095C460.015 327.095 455.043 328.537 459.857 331.422C464.671 334.306 460.015 327.095 460.015 327.095Z" fill="black"/>
<path opacity="0.1" d="M482.061 250.086C482.622 250.086 491.363 247.202 494.407 248.486C497.451 249.77 501.225 249.765 501.225 249.765L482.061 250.086Z" fill="black"/>
<path opacity="0.1" d="M483.214 259.259L483.127 260.054L475.651 279.591C475.651 279.591 474.447 285.518 473.402 288.881C472.746 291.167 472.225 293.49 471.842 295.837L478.471 254.835L483.214 259.259Z" fill="black"/>
<path d="M494.825 224.724L491.719 224.775H491.623L489.802 216.698C490.694 216.657 491.597 216.611 492.5 216.555L494.825 224.724Z" fill="#3F3D56"/>
<path d="M532.648 214.924L530.654 216.57L524.01 222.059C524.01 222.059 505.973 231.675 501.006 222.538C496.625 214.491 517.074 208.748 522 207.495C522.668 207.326 523.051 207.24 523.051 207.24L532.648 214.924Z" fill="#A5636D"/>
<path opacity="0.1" d="M455.609 136.188C455.609 136.188 459.133 137.793 459.934 140.035C460.735 142.277 455.609 136.188 455.609 136.188Z" fill="black"/>
<path opacity="0.1" d="M444.701 160.225C444.701 160.225 439.571 166.473 441.642 168.888C443.712 171.304 444.701 160.225 444.701 160.225Z" fill="black"/>
<path opacity="0.1" d="M536.417 139.714C536.417 139.714 531.608 140.193 531.445 144.362L536.417 139.714Z" fill="black"/>
<path opacity="0.1" d="M491.842 205.405C492.352 204.926 503.387 188.589 505.952 190.026L491.842 205.405Z" fill="black"/>
<path opacity="0.1" d="M512.531 99.1764C512.533 102.317 511.757 105.409 510.272 108.176H510.129C508.92 107.921 508.293 106.514 507.37 105.628C506.802 105.088 506.079 104.74 505.303 104.631C504.526 104.522 503.735 104.659 503.041 105.021C502.338 105.441 501.766 106.048 501.39 106.775C501.015 107.501 500.85 108.318 500.914 109.134C500.302 106.586 500.496 103.839 499.894 101.271C499.292 98.7024 497.502 96.0985 495.044 96.0526C493.984 96.0526 492.75 96.445 491.985 95.65C491.521 95.171 491.429 94.4168 491.082 93.8359C489.323 90.9975 483.978 92.4345 481.796 93.8919C479.613 95.3493 477.079 97.6731 474.366 98.9216C474.475 93.9138 476.552 89.1503 480.148 85.6604C483.744 82.1705 488.569 80.2344 493.581 80.2705C498.594 80.3067 503.391 82.3121 506.935 85.8536C510.48 89.395 512.488 94.188 512.526 99.1967L512.531 99.1764Z" fill="black"/>
<path d="M491.087 93.3364C491.434 93.9173 491.526 94.6715 491.99 95.1505C492.755 95.9404 493.989 95.5327 495.049 95.5531C497.507 95.5939 499.302 98.1979 499.899 100.766C500.496 103.335 500.302 106.066 500.919 108.629C500.856 107.815 501.021 106.999 501.397 106.273C501.772 105.547 502.344 104.941 503.046 104.522C503.739 104.159 504.53 104.022 505.305 104.131C506.081 104.24 506.803 104.588 507.37 105.128C508.293 106.005 508.9 107.411 510.134 107.676C511.368 107.941 512.51 106.769 512.949 105.495C513.387 104.221 513.352 102.825 513.637 101.505C514.183 99.003 515.815 96.9545 516.697 94.5798C517.772 91.6885 517.743 88.5026 516.615 85.6314C516.014 84.1026 515.121 82.7726 514.509 81.2693C513.591 78.9863 513.347 76.4129 512.225 74.237C510.338 70.5934 505.891 68.7742 502.24 70.1603C500.496 70.8176 498.981 72.0865 497.212 72.6521C494.845 73.4114 492.311 72.8407 489.858 72.4993C487.405 72.1578 484.692 72.1273 482.719 73.7376C480.449 75.5925 479.827 79.0781 477.696 81.1164C476.798 81.9725 475.686 82.5178 474.743 83.3077C473.8 84.0975 472.984 85.2747 473.091 86.5589C473.234 88.2201 474.86 89.7285 474.259 91.2624C474.042 91.7086 473.739 92.1072 473.366 92.4344C471.582 94.3068 470.254 96.565 469.485 99.0336C473.779 100.374 478.42 95.6448 481.78 93.4281C483.988 91.935 489.333 90.4929 491.087 93.3364Z" fill="#4C3E42"/>
<path opacity="0.1" d="M532.648 214.924L530.654 216.57C528.895 213.64 521.669 207.79 521.669 207.79L521.98 207.49C522.648 207.321 523.03 207.235 523.03 207.235L532.648 214.924Z" fill="black"/>
<path d="M534.576 211.974C534.576 211.974 533.857 213.758 533.118 215.302C532.378 216.846 531.588 218.242 531.527 217.106C531.445 214.858 522.148 207.327 522.148 207.327L523.408 206.104L524.872 204.682L534.576 211.974Z" fill="#E7EFFD"/>
<path opacity="0.1" d="M534.898 200.116L535.948 217.992C533.459 214.124 526.621 204.203 522.225 204.524L532.888 192.294C533.334 191.801 533.743 191.276 534.112 190.724C534.515 195.81 534.898 200.116 534.898 200.116Z" fill="black"/>
<path opacity="0.1" d="M534.576 211.974C534.576 211.974 533.857 213.758 533.118 215.302C530.323 211.469 526.488 206.949 523.428 206.104L524.892 204.682L534.576 211.974Z" fill="black"/>
<path d="M542.593 147.149L545.479 149.391C545.479 149.391 550.288 149.473 550.767 153.468C551.247 157.463 555.658 159.318 555.658 159.318C555.658 159.318 558.947 162.6 558.947 164.123C558.947 165.647 561.43 168.368 561.43 168.608C561.43 168.847 563.837 173.734 563.516 174.616C563.195 175.498 566.066 179.345 565.199 180.787C564.475 182.081 563.833 183.418 563.276 184.792C563.276 184.792 559.508 192.003 557.58 193.364C555.653 194.724 546.841 206.18 546.841 206.18C546.841 206.18 537.381 217.075 537.381 220.448C537.381 220.448 528.161 205.064 522.709 205.466L533.373 193.211C533.373 193.211 535.214 191.208 535.295 190.006C535.377 188.803 540.425 183.274 542.832 183.034C542.832 183.034 543.23 179.747 542.19 179.671C541.149 179.595 540.267 177.026 540.267 177.026C540.267 177.026 533.209 168.694 533.128 163.405C533.046 158.115 542.593 147.149 542.593 147.149Z" fill="#65617D"/>
<path opacity="0.1" d="M546.841 154.793C546.841 154.793 540.104 159.756 541.547 161.362C542.99 162.967 546.841 154.793 546.841 154.793Z" fill="black"/>
<path opacity="0.1" d="M547.162 175.283C547.162 175.283 559.666 171.278 560.931 175.283H547.162Z" fill="black"/>
<path opacity="0.1" d="M458.934 153.815C458.934 153.815 458.934 172.078 457.369 173.882C455.803 175.686 458.934 153.815 458.934 153.815Z" fill="black"/>
<path opacity="0.1" d="M531.205 159.7L533.531 166.228C533.531 166.228 534.454 159.823 531.205 159.7Z" fill="black"/>
<g opacity="0.1">
<path opacity="0.1" d="M474.544 89.6776C475.13 88.1743 473.596 86.7016 473.392 85.0913C473.19 85.5458 473.103 86.0426 473.137 86.5385C473.239 87.7565 474.156 88.8877 474.376 90.0139C474.442 89.9072 474.498 89.7947 474.544 89.6776Z" fill="black"/>
<path opacity="0.1" d="M501.128 106.932C500.552 104.384 500.72 101.729 500.139 99.2069C499.557 96.6845 497.747 94.0295 495.289 93.9887C494.228 93.9887 492.994 94.376 492.229 93.5862C491.765 93.1071 491.673 92.353 491.327 91.772C489.572 88.9336 484.228 90.3707 482.04 91.8281C478.761 94.004 474.258 98.5598 470.051 97.5304C469.852 98.0145 469.664 98.5037 469.506 99.0082C473.799 100.348 478.44 95.6194 481.801 93.4027C483.988 91.9504 489.328 90.5082 491.087 93.3517C491.434 93.9327 491.525 94.6869 491.99 95.1659C492.754 95.9558 493.989 95.5481 495.049 95.5685C497.507 95.6092 499.302 98.2132 499.899 100.782C500.496 103.35 500.302 106.081 500.919 108.645C500.874 108.066 500.945 107.483 501.128 106.932Z" fill="black"/>
<path opacity="0.1" d="M513.183 103.926C512.745 105.2 511.602 106.367 510.368 106.107C509.134 105.847 508.533 104.445 507.61 103.559C507.04 103.021 506.317 102.673 505.541 102.566C504.765 102.458 503.974 102.595 503.28 102.957C502.611 103.355 502.062 103.925 501.688 104.607C501.314 105.289 501.129 106.058 501.153 106.835C501.475 105.857 502.147 105.031 503.04 104.517C503.734 104.154 504.524 104.017 505.3 104.126C506.076 104.234 506.798 104.583 507.365 105.123C508.288 106 508.895 107.406 510.129 107.671C511.363 107.936 512.505 106.764 512.944 105.49C513.17 104.74 513.317 103.968 513.382 103.187C513.329 103.436 513.263 103.683 513.183 103.926Z" fill="black"/>
<path opacity="0.1" d="M516.952 93.0154C516.049 95.3901 514.402 97.4387 513.892 99.9357C513.78 100.445 513.719 100.955 513.657 101.464C514.203 98.9776 515.83 96.9342 516.717 94.5646C517.119 93.4975 517.368 92.3789 517.457 91.2421C517.336 91.8456 517.167 92.4386 516.952 93.0154Z" fill="black"/>
</g>
<path d="M401.095 151.022C401.205 151.022 401.294 150.933 401.294 150.823C401.294 150.713 401.205 150.625 401.095 150.625C400.985 150.625 400.896 150.713 400.896 150.823C400.896 150.933 400.985 151.022 401.095 151.022Z" fill="#E6E8EC"/>
<path d="M240.832 262.637C240.832 262.637 246.441 258.617 252.27 261.109C252.27 261.109 250.638 264.564 243.397 264.518L240.832 262.637Z" fill="#EDAD00"/>
<path d="M240.133 262.872C240.133 262.872 238.634 269.614 243.193 273.986C243.193 273.986 245.742 271.132 242.851 264.492L240.133 262.872Z" fill="#EDAD00"/>
<path d="M232.698 256.736C232.698 256.736 232.907 251.044 245.804 252.435C245.804 252.435 246.008 256.099 241.571 258.005C237.134 259.911 235.018 258.53 232.698 256.736Z" fill="#EDAD00"/>
<path d="M231.907 256.711C231.907 256.711 226.553 258.657 231.846 270.495C231.846 270.495 235.416 269.558 235.844 264.752C236.273 259.947 234.324 258.382 231.907 256.711Z" fill="#EDAD00"/>
<path d="M224.34 248.955C224.34 248.955 223.248 239.645 236.395 240.098C236.395 240.098 237.65 248.517 226.742 251.11L224.34 248.955Z" fill="#EDAD00"/>
<path d="M215.272 238.743C215.272 238.743 216.665 228.087 229.888 230.742C229.888 230.742 230.286 239.915 217.506 241.184L215.272 238.743Z" fill="#EDAD00"/>
<path d="M208.526 228.082C208.526 228.082 211.137 217.636 224.238 220.25C224.238 220.25 221.504 229.636 209.449 229.932L208.526 228.082Z" fill="#EDAD00"/>
<path d="M202.106 217.666C202.106 217.666 204.655 206.853 217.287 209.589C217.287 209.589 213.493 219.913 203.008 219.46L202.106 217.666Z" fill="#EDAD00"/>
<path d="M197.837 207.704C197.837 207.704 199.596 194.541 211.407 196.977C211.407 196.977 208.47 209.013 198.781 209.574L197.837 207.704Z" fill="#EDAD00"/>
<path d="M193.737 195.621C193.737 195.621 195.945 182.326 207.904 185.71C207.904 185.71 203.747 198.353 194.645 197.43L193.737 195.621Z" fill="#EDAD00"/>
<path d="M191.05 184.349C191.05 184.349 194.854 170.993 204.013 170.998C204.013 170.998 200.137 185.098 191.916 186.963L191.05 184.349Z" fill="#EDAD00"/>
<path d="M189.199 173.296C189.199 173.296 193.278 157.239 200.765 158.177C200.765 158.177 197.985 170.437 189.545 175.757L189.199 173.296Z" fill="#EDAD00"/>
<path d="M187.878 160.072C187.878 160.072 191.764 146.67 199.097 145.865C199.097 145.865 196.603 158.997 188.179 163.502L187.878 160.072Z" fill="#EDAD00"/>
<path d="M186.516 147.766C186.516 147.766 191.488 134.312 196.333 133.828C196.333 133.828 194.451 146.961 187.082 149.921L186.516 147.766Z" fill="#EDAD00"/>
<path d="M185.466 136.3C185.466 136.3 188.286 121.782 193.085 120.406C193.085 120.406 192.875 132.198 185.996 137.355L185.466 136.3Z" fill="#EDAD00"/>
<path d="M183.064 121.333C183.064 121.333 186.17 109.73 190.03 107.834C190.03 107.834 189.77 121.379 184.084 124.1L183.064 121.333Z" fill="#EDAD00"/>
<path d="M181.172 111.514L179.683 91.3185C179.683 91.3185 187.592 106.3 181.83 115.045L181.172 111.514Z" fill="#EDAD00"/>
<path d="M174.731 91.6345C174.731 91.6345 168.887 77.0755 167.592 76.3009C167.592 76.3009 178.301 85.4735 177.791 97.8412L174.731 91.6345Z" fill="#EDAD00"/>
<path d="M223.978 248.899C223.978 248.899 214.635 248.043 215.415 261.16C215.415 261.16 223.87 262.179 226.196 251.243L223.978 248.899Z" fill="#EDAD00"/>
<path d="M214.819 238.406C214.819 238.406 204.074 238.783 205.466 252.165C205.466 252.165 214.543 253.429 217.037 240.842L214.819 238.406Z" fill="#EDAD00"/>
<path d="M208.454 228.959C208.454 228.959 198.526 224.76 192.738 236.791C192.738 236.791 201.891 240.256 209.388 230.829L208.454 228.959Z" fill="#EDAD00"/>
<path d="M201.892 217.773C201.892 217.773 191.718 213.294 186.297 225.04C186.297 225.04 196.838 228.22 202.784 219.567L201.892 217.773Z" fill="#EDAD00"/>
<path d="M197.975 207.984C197.975 207.984 188.015 199.178 180.703 208.748C180.703 208.748 190.81 215.918 198.495 210.007L197.975 207.984Z" fill="#EDAD00"/>
<path d="M194.273 195.29C194.273 195.29 184.242 186.275 177.011 196.381C177.011 196.381 188.158 203.663 194.691 197.242L194.273 195.29Z" fill="#EDAD00"/>
<path d="M192.029 183.926C192.029 183.926 184.129 172.501 175.465 175.447C175.465 175.447 183.665 187.554 192.049 186.658L192.029 183.926Z" fill="#EDAD00"/>
<path d="M189.413 173.215C189.413 173.215 181.34 158.742 174.344 161.576C174.344 161.576 180.188 172.71 189.704 175.686L189.413 173.215Z" fill="#EDAD00"/>
<path d="M188.362 159.298C188.362 159.298 180.203 147.98 173.033 149.677C173.033 149.677 179.785 161.209 189.239 162.63L188.362 159.298Z" fill="#EDAD00"/>
<path d="M187.322 147.475C187.322 147.475 180.845 134.674 175.975 134.735C175.975 134.735 179.346 147.567 187.001 149.672L187.322 147.475Z" fill="#EDAD00"/>
<path d="M185.695 136.004C185.695 136.004 178.556 123.061 173.548 123.229C173.548 123.229 177.383 134.384 185.517 137.176L185.695 136.004Z" fill="#EDAD00"/>
<path d="M184.16 122.098C184.16 122.098 178.77 111.366 174.609 110.29C174.609 110.29 177.602 123.504 183.727 125.018L184.16 122.098Z" fill="#EDAD00"/>
<path d="M180.565 111.152L168.805 94.6614C168.805 94.6614 172.294 111.233 182.309 114.306L180.565 111.152Z" fill="#EDAD00"/>
<path d="M172.238 93.0918C172.238 93.0918 158.979 84.6785 158.469 83.2618C158.469 83.2618 165.537 95.492 177.796 97.2195L172.238 93.0918Z" fill="#EDAD00"/>
<path d="M171.309 89.117C171.309 89.117 155.939 75.4447 152.155 75.6027C152.155 75.6027 164.394 75.6944 171.636 88.3424L171.309 89.117Z" fill="#EDAD00"/>
<path d="M184.099 124.218L183.559 124.309C179.938 102.626 175.399 89.9018 170.733 88.4852L170.891 87.9756C175.823 89.4636 180.387 102.005 184.099 124.218Z" fill="#444053"/>
<path d="M190.188 176.165L189.377 176.267C189.127 174.229 188.918 172.16 188.745 170.091C187.276 152.082 185.435 135.566 183.375 123.209L183.824 122.607C185.864 134.985 188.092 151.99 189.566 169.999C189.729 172.083 189.943 174.157 190.188 176.165Z" fill="#444053"/>
<path d="M256.456 272.432C256.309 272.371 241.698 266.515 226.201 251.793C217.127 243.179 209.477 233.183 203.533 222.176C196.103 208.417 191.238 191.336 189.188 174.641L190.055 175.008C194.645 212.473 212.769 237.515 226.92 250.968C242.264 265.557 256.711 271.351 256.854 271.418L256.456 272.432Z" fill="#444053"/>
<g opacity="0.7">
<path opacity="0.7" d="M266.61 255.809C266.61 255.809 273.168 253.643 277.982 257.74C277.982 257.74 275.396 260.558 268.497 258.357L266.61 255.809Z" fill="#EDAD00"/>
<path opacity="0.7" d="M265.87 255.819C265.87 255.819 262.433 261.812 265.493 267.346C265.493 267.346 268.772 265.374 267.992 258.173L265.87 255.819Z" fill="#EDAD00"/>
<path opacity="0.7" d="M260.597 247.757C260.597 247.757 262.494 242.381 274.366 247.549C274.366 247.549 273.469 251.116 268.665 251.625C263.861 252.135 262.28 250.158 260.597 247.757Z" fill="#EDAD00"/>
<path opacity="0.7" d="M259.853 247.538C259.853 247.538 254.157 247.808 255.692 260.681C255.692 260.681 259.353 260.844 261.215 256.39C263.076 251.936 261.663 249.811 259.853 247.538Z" fill="#EDAD00"/>
<path opacity="0.7" d="M254.932 237.856C254.932 237.856 256.666 228.643 269.078 232.984C269.078 232.984 267.767 241.393 256.584 240.628L254.932 237.856Z" fill="#EDAD00"/>
<path opacity="0.7" d="M249.317 225.397C249.317 225.397 253.82 215.638 265.636 222.105C265.636 222.105 263.295 230.956 250.709 228.388L249.317 225.397Z" fill="#EDAD00"/>
<path opacity="0.7" d="M246.048 213.212C246.048 213.212 251.658 204.014 263.387 210.404C263.387 210.404 257.981 218.558 246.385 215.276L246.048 213.212Z" fill="#EDAD00"/>
<path opacity="0.7" d="M243.024 201.359C243.024 201.359 248.665 191.789 259.929 198.159C259.929 198.159 253.234 206.888 243.346 203.336L243.024 201.359Z" fill="#EDAD00"/>
<path opacity="0.7" d="M241.918 190.576C241.918 190.576 247.527 178.524 258.053 184.369C258.053 184.369 251.663 194.984 242.244 192.64L241.918 190.576Z" fill="#EDAD00"/>
<path opacity="0.7" d="M241.596 177.826C241.596 177.826 247.665 165.79 258.073 172.578C258.073 172.578 250.337 183.412 241.918 179.799L241.596 177.826Z" fill="#EDAD00"/>
<path opacity="0.7" d="M242.392 166.254C242.392 166.254 250 154.635 258.741 157.361C258.741 157.361 250.842 169.673 242.422 169.01L242.392 166.254Z" fill="#EDAD00"/>
<path opacity="0.7" d="M243.912 155.16C243.912 155.16 252.581 141.039 259.455 144.168C259.455 144.168 253.147 155.043 243.519 157.616L243.912 155.16Z" fill="#EDAD00"/>
<path opacity="0.7" d="M246.594 142.14C246.594 142.14 254.294 130.506 261.526 131.912C261.526 131.912 255.238 143.709 245.85 145.508L246.594 142.14Z" fill="#EDAD00"/>
<path opacity="0.7" d="M248.95 129.991C248.95 129.991 257.706 118.622 262.474 119.601C262.474 119.601 256.768 131.576 248.853 132.218L248.95 129.991Z" fill="#EDAD00"/>
<path opacity="0.7" d="M251.362 118.729C251.362 118.729 258.374 105.709 263.372 105.821C263.372 105.821 259.659 117.032 251.551 119.896L251.362 118.729Z" fill="#EDAD00"/>
<path opacity="0.7" d="M253.529 103.727C253.529 103.727 259.945 93.576 264.198 92.9084C264.198 92.9084 259.914 105.765 253.677 106.667L253.529 103.727Z" fill="#EDAD00"/>
<path opacity="0.7" d="M254.641 93.7849L259.231 74.0688C259.231 74.0688 262.326 90.7171 254.233 97.3724L254.641 93.7849Z" fill="#EDAD00"/>
<path opacity="0.7" d="M254.412 72.8968C254.412 72.8968 253.167 57.2575 252.153 56.1313C252.153 56.1313 259.664 68.0863 255.467 79.7253L254.412 72.8968Z" fill="#EDAD00"/>
<path opacity="0.7" d="M254.605 237.683C254.605 237.683 245.936 234.08 242.785 246.855C242.785 246.855 250.541 250.367 256.044 240.593L254.605 237.683Z" fill="#EDAD00"/>
<path opacity="0.7" d="M248.986 224.938C248.986 224.938 238.618 222.105 235.956 235.313C235.956 235.313 244.243 239.222 250.378 227.945L248.986 224.938Z" fill="#EDAD00"/>
<path opacity="0.7" d="M245.722 214.028C245.722 214.028 237.496 207.067 228.384 216.836C228.384 216.836 236.089 222.864 246.054 216.092L245.722 214.028Z" fill="#EDAD00"/>
<path opacity="0.7" d="M242.785 201.4C242.785 201.4 234.411 194.098 225.737 203.714C225.737 203.714 234.85 209.88 243.106 203.382L242.785 201.4Z" fill="#EDAD00"/>
<path opacity="0.7" d="M241.964 190.887C241.964 190.887 235.074 179.518 225.247 186.479C225.247 186.479 232.759 196.335 241.857 192.971L241.964 190.887Z" fill="#EDAD00"/>
<path opacity="0.7" d="M242.208 177.663C242.208 177.663 235.314 166.08 225.38 173.587C225.38 173.587 233.855 183.855 242.004 179.666L242.208 177.663Z" fill="#EDAD00"/>
<path opacity="0.7" d="M243.442 166.147C243.442 166.147 239.307 152.897 230.153 153.127C230.153 153.127 234.381 167.13 242.647 168.786L243.442 166.147Z" fill="#EDAD00"/>
<path opacity="0.7" d="M244.141 155.145C244.141 155.145 240.74 138.929 233.218 139.556C233.218 139.556 235.482 151.924 243.682 157.591L244.141 155.145Z" fill="#EDAD00"/>
<path opacity="0.7" d="M247.282 141.544C247.282 141.544 242.861 128.294 235.508 127.785C235.508 127.785 238.527 140.81 247.124 144.973L247.282 141.544Z" fill="#EDAD00"/>
<path opacity="0.7" d="M249.807 129.95C249.807 129.95 247.436 115.804 242.764 114.423C242.764 114.423 242.163 127.673 248.848 131.963L249.807 129.95Z" fill="#EDAD00"/>
<path opacity="0.7" d="M251.693 118.515C251.693 118.515 248.72 104.033 243.901 102.718C243.901 102.718 244.238 114.505 251.178 119.591L251.693 118.515Z" fill="#EDAD00"/>
<path opacity="0.7" d="M254.345 104.787C254.345 104.787 252.392 92.939 248.736 90.6663C248.736 90.6663 247.66 104.175 253.055 107.442L254.345 104.787Z" fill="#EDAD00"/>
<path opacity="0.7" d="M254.172 93.2651L247.853 74.0281C247.853 74.0281 246.247 90.8904 254.896 96.8016L254.172 93.2651Z" fill="#EDAD00"/>
<path opacity="0.7" d="M251.597 73.5491C251.597 73.5491 241.444 61.5737 241.398 60.0653C241.398 60.0653 244.503 73.8242 255.676 79.1342L251.597 73.5491Z" fill="#EDAD00"/>
<path opacity="0.7" d="M251.893 69.4775C251.893 69.4775 241.291 51.8508 237.614 50.8774C237.614 50.8774 249.282 54.6076 252.402 68.8354L251.893 69.4775Z" fill="#EDAD00"/>
<path opacity="0.7" d="M253.652 106.79L253.111 106.713C256.11 84.9384 255.549 71.4343 251.53 68.6978L251.841 68.2494C256.099 71.149 256.727 84.4696 253.652 106.79Z" fill="#444053"/>
<path opacity="0.7" d="M244.003 158.197L243.198 158.049C243.565 156.036 243.978 153.972 244.437 151.965C248.394 134.338 251.576 118.021 253.264 105.592L253.871 105.154C252.158 117.583 249.2 134.476 245.232 152.123C244.784 154.161 244.366 156.194 244.003 158.197Z" fill="#444053"/>
<path opacity="0.7" d="M278.609 269.802C278.487 269.705 266.278 259.763 255.87 241.107C249.762 230.187 245.426 218.367 243.024 206.088C240.026 190.739 240.475 172.965 243.478 156.444L244.197 157.05C237.44 194.189 247.257 223.48 256.778 240.531C267.084 259.019 279.15 268.854 279.272 268.951L278.609 269.802Z" fill="#444053"/>
</g>
<path d="M156.74 222.859C155.541 223.352 154.296 223.725 153.022 223.97C150.797 224.386 148.539 224.599 146.276 224.607C146.342 225.203 146.393 225.758 146.444 226.263C146.566 227.649 146.638 228.602 146.638 228.602L144.246 228.439L124.521 227.093L112.986 225.386C113.542 226.133 114.147 226.843 114.796 227.511C115.468 228.222 116.245 228.825 117.101 229.3C117.101 229.3 127.509 237.724 129.309 237.8C129.564 237.8 129.646 238.055 129.605 238.457C133.986 238.457 147.607 239.094 143.828 246.672C143.203 248.023 142.1 249.095 140.732 249.684C136.362 251.533 129.768 248.206 126.372 246.162C126.04 246.81 125.724 247.411 125.444 247.926C124.868 249.011 124.465 249.729 124.465 249.729L124.123 249.485L106.621 237.03L102.787 233.779C101.66 233.728 100.545 233.534 99.4667 233.203L98.9568 233.04C98.9346 233.085 98.9159 233.131 98.9007 233.178C98.761 233.576 98.6569 233.985 98.5896 234.401C98.5896 234.462 98.5896 234.523 98.5896 234.584C98.518 235.059 98.4704 235.537 98.4468 236.016C98.4468 236.343 98.4213 236.689 98.4213 237.036C98.3907 243.976 101.175 255.131 101.175 255.131C101.175 255.131 108.391 273.522 105.831 277.767C105.699 277.982 105.526 278.169 105.321 278.317C104.418 278.97 103.878 280.132 103.597 281.513C102.644 286.017 104.316 292.892 104.316 292.892C104.316 292.892 104.163 293.147 103.903 293.544C103.341 294.443 102.706 295.295 102.006 296.092C101.899 296.214 101.787 296.342 101.67 296.459C101.354 296.79 101.013 297.097 100.65 297.376C100.716 297.575 100.788 297.779 100.859 297.998C100.93 298.217 101.022 298.558 101.093 298.864C101.661 301.369 101.439 303.987 100.456 306.36C99.7877 308.09 99.3554 309.902 99.171 311.747C98.8393 315.125 98.9267 318.531 99.431 321.887C99.3545 321.847 99.2882 321.806 99.2117 321.77C93.5716 318.825 88.0114 315.748 82.5311 312.541C80.9247 311.614 79.3286 310.666 77.7426 309.713C75.7912 308.538 73.8483 307.349 71.9138 306.146C69.3641 304.556 66.8143 302.926 64.2645 301.259L63.0712 300.464L62.6122 300.153C61.9646 299.72 61.3272 299.287 60.6846 298.849C58.0481 295.444 55.6393 291.869 53.4738 288.147C53.1118 287.5 52.7854 286.884 52.5151 286.318V286.287L52.3417 285.915L51.6227 285.661C50.2713 285.187 49.4146 284.855 49.4146 284.855C50.0383 282.582 50.337 280.231 50.3019 277.874C50.2611 273.288 48.9913 267.173 43.7592 262.27C36.0283 254.968 34.9625 247.757 34.8503 244.99C34.8503 244.797 34.8503 244.623 34.8503 244.481C34.8477 244.248 34.8579 244.015 34.8809 243.783L35.4724 243.217C33.9731 242.916 32.5657 242.779 32.5657 242.779C32.5657 242.779 37.6958 224.23 46.3345 218.038C50.6181 214.981 54.1827 209.885 56.7019 205.512C61.2974 197.611 66.458 190.051 72.1433 182.892L73.6987 180.93L74.1525 180.354L74.2494 180.237L74.3718 180.074C74.161 179.754 73.9469 179.438 73.7293 179.126L73.5865 178.917C72.9082 177.898 72.3269 176.879 72.4187 175.661C72.4187 175.661 72.4187 175.635 72.4187 175.625C72.4187 175.538 72.4187 175.457 72.4187 175.365C72.4403 175.162 72.4778 174.961 72.5309 174.764C72.5483 174.796 72.5688 174.827 72.5921 174.855C73.3213 172.736 76.1312 171.798 78.2016 170.626C83.0819 167.884 85.1625 161.886 86.2079 156.306C87.0187 151.965 87.6919 147.098 91.0576 144.311C93.23 142.517 96.1571 141.926 98.355 140.147C99.6267 139.024 100.678 137.675 101.456 136.167C101.965 135.301 102.404 134.404 102.878 133.538C105.051 129.614 107.906 125.965 111.685 123.616C115.464 121.267 120.258 120.355 124.398 121.935C125.995 122.541 127.458 123.463 128.988 124.141C129.933 124.526 130.909 124.83 131.905 125.048C135.021 125.777 138.3 125.965 141.227 127.265C145.985 129.375 149.08 134.042 151.905 138.476C153.369 140.769 155.669 144.122 156.974 147.496C156.974 147.373 156.974 147.261 156.974 147.144C157.604 148.63 157.95 150.22 157.994 151.832C158.02 152.519 157.946 153.205 157.775 153.871C157.306 155.603 156.107 156.699 154.603 157.504L154.363 157.621C154.042 157.786 153.712 157.934 153.374 158.065C153.323 158.345 153.267 158.63 153.206 158.905C153.18 159.023 153.15 159.145 153.119 159.262C153.053 159.547 152.976 159.828 152.895 160.108C151.805 163.75 149.679 166.997 146.775 169.454C144.765 171.173 142.441 172.488 139.932 173.327C139.753 173.388 139.565 173.434 139.386 173.49C139.234 173.916 139.018 174.317 138.743 174.677C138.545 174.931 138.311 175.156 138.05 175.345C137.887 175.455 137.717 175.554 137.54 175.64C137.497 175.667 137.451 175.69 137.402 175.706C135.566 176.532 133.052 175.885 131.283 174.652C131.191 174.59 131.104 174.519 131.018 174.453C131.018 174.743 130.972 175.049 130.921 175.365C130.87 175.681 130.834 175.875 130.778 176.14C130.722 176.405 130.701 176.532 130.666 176.721C130.63 176.909 130.605 177.037 130.574 177.184L130.513 177.444C129.503 182.363 127.575 187.048 124.832 191.254C124.434 191.856 124.003 192.437 123.542 192.992L122.277 194.918V195.178C122.517 199.611 121.058 203.744 118.998 207.301C118.308 208.48 117.55 209.619 116.729 210.71L117.014 210.878C119.87 212.504 125.5 215.393 129.059 215.149C129.059 215.149 142.522 216.886 144.083 216.015C144.297 215.893 144.506 216.061 144.7 216.423C146.877 215.098 151.885 212.29 155.837 211.918C158.601 211.653 160.85 212.575 161.268 215.995C161.686 219.414 159.626 221.621 156.74 222.859Z" fill="url(#paint0_linear)"/>
<path d="M83.0461 292.933C83.9081 294.402 84.4223 296.049 84.5496 297.747C84.6769 299.446 84.4138 301.151 83.7805 302.732C82.5413 305.835 82.4036 309.703 82.5311 312.542C80.9247 311.614 79.3286 310.666 77.7426 309.713C75.7912 308.538 73.8483 307.349 71.9138 306.146C69.364 304.556 66.8143 302.926 64.2645 301.259L63.0712 300.464L62.6122 300.153C62.5721 300.079 62.5224 300.011 62.4643 299.95C61.781 299.226 57.7983 293.519 55.4321 289.187C55.0037 288.392 54.6314 287.658 54.3357 286.986V286.95C53.8257 285.819 53.586 284.912 53.739 284.499C53.9244 283.849 54.239 283.244 54.664 282.718C55.0889 282.193 55.6155 281.759 56.2123 281.441C59.1496 279.913 63.8616 281.324 68.5226 283.571C72.5329 285.597 76.3763 287.936 80.017 290.568L80.4301 290.869L80.4709 290.899C82.0007 291.985 82.8881 292.703 82.8881 292.703C82.8881 292.703 82.9543 292.785 83.0461 292.933Z" fill="#FBBEBE"/>
<path opacity="0.05" d="M82.2711 292.255C83.1347 293.725 83.6498 295.374 83.7771 297.074C83.9044 298.775 83.6404 300.482 83.0055 302.064C81.7663 305.168 81.6286 309.035 81.7561 311.879C80.1514 310.945 78.5553 310 76.9676 309.046C75.0128 307.87 73.0698 306.681 71.1388 305.479C68.589 303.884 66.0393 302.253 63.515 300.586L62.3217 299.791L61.8627 299.481C61.8214 299.407 61.7717 299.339 61.7148 299.277C61.0315 298.558 57.0487 292.851 54.6825 288.514C54.2542 287.719 53.8819 286.986 53.5861 286.313V286.282C53.0762 285.146 52.8365 284.244 52.9895 283.826C53.1757 283.177 53.4906 282.572 53.9155 282.046C54.3404 281.521 54.8665 281.087 55.4628 280.769C58.4001 279.24 63.1121 280.651 67.7731 282.899C71.7834 284.924 75.6268 287.264 79.2675 289.895L79.6806 290.196L79.7214 290.227C81.2512 291.312 82.1385 292.03 82.1385 292.03C82.1385 292.03 82.1793 292.107 82.2711 292.255Z" fill="black"/>
<path d="M101.048 304.612C100.899 305.485 100.658 306.339 100.329 307.16C99.7639 308.638 99.3754 310.178 99.171 311.747C98.7694 315.077 98.7831 318.443 99.2118 321.77C93.5717 318.825 88.0115 315.748 82.5312 312.541C80.9248 311.614 79.3287 310.666 77.7427 309.713C77.3857 307.002 76.8758 304.617 76.2995 304.031C75.5448 303.236 71.2357 297.081 68.5584 292.224C68.2116 291.613 67.9108 291.021 67.6303 290.461V290.435C67.5232 290.211 67.4212 289.997 67.3243 289.783C66.6359 288.305 66.2687 287.154 66.4523 286.598C66.8101 285.39 67.5466 284.329 68.5533 283.571C73.0766 280.269 82.4802 284.738 89.7012 289.177L89.8796 289.284C91.2463 290.135 92.5416 290.976 93.7043 291.76L94.3826 292.219C97.3709 294.257 99.3546 295.842 99.3546 295.842C99.8474 296.602 100.243 297.42 100.533 298.278C100.703 298.762 100.844 299.255 100.956 299.756C101.309 301.353 101.34 303.003 101.048 304.612Z" fill="#FBBEBE"/>
<path opacity="0.1" d="M55.4577 289.187C59.1651 290.481 64.6369 292.199 67.6151 292.245C67.9235 292.254 68.2321 292.239 68.5381 292.199C70.634 291.913 77.0951 292.372 83.0259 292.907C85.4023 293.116 87.692 293.335 89.584 293.529L94.3367 294.038V292.204C93.0159 291.297 91.481 290.288 89.8389 289.269C82.5925 284.794 73.0716 280.223 68.5126 283.551C62.0922 280.453 55.575 278.965 53.7239 284.478C53.5097 285.197 54.2899 287.021 55.4577 289.187Z" fill="black"/>
<path d="M37.645 246.478C37.7469 249.225 38.7771 256.354 46.1561 263.555C55.5699 272.727 51.5565 285.915 51.5565 285.915C51.5565 285.915 62.7756 290.318 67.615 290.436C67.9234 290.445 68.2321 290.43 68.5381 290.39C71.4397 289.987 82.9749 291.052 89.6043 291.72L94.3571 292.229V253.235L42.3722 240.618L37.6654 245.306C37.6336 245.696 37.6267 246.088 37.645 246.478Z" fill="#5C5C8E"/>
<g opacity="0.1">
<path opacity="0.1" d="M93.5053 291.745L94.3569 291.832V292.25L89.6042 291.74C84.8463 291.261 77.5743 290.578 72.7756 290.379C76.0954 290.084 87.085 291.098 93.5053 291.745Z" fill="black"/>
<path opacity="0.1" d="M37.6653 245.332L42.3722 240.643L45.5135 241.403L41.592 245.332C41.567 245.722 41.567 246.113 41.592 246.504C41.694 249.25 42.7241 256.374 50.1031 263.58C59.5169 272.753 55.5036 285.936 55.5036 285.936C55.5036 285.936 64.7847 289.579 70.1036 290.328C69.5923 290.326 69.0814 290.355 68.5737 290.415C68.2678 290.455 67.9591 290.47 67.6507 290.461C62.8112 290.339 51.5922 285.936 51.5922 285.936C51.5922 285.936 55.6055 272.753 46.1918 263.58C38.777 256.374 37.7469 249.25 37.6449 246.519C37.6261 246.123 37.6329 245.727 37.6653 245.332Z" fill="black"/>
</g>
<path d="M141.543 218.94C141.543 218.94 157.265 208.045 158.413 217.85C159.56 227.654 141.543 226.278 141.543 226.278V218.94Z" fill="#FBBEBE"/>
<path d="M114.434 211.714C114.434 211.714 122.935 217.32 127.642 216.988C127.642 216.988 140.493 218.711 141.987 217.85C143.481 216.988 144.399 230.294 144.399 230.294L123.282 228.801L109.737 226.737C109.737 226.737 102.965 222.609 102.965 219.052C102.965 215.495 114.434 211.714 114.434 211.714Z" fill="#F7CDDD"/>
<path d="M114.434 211.714C114.434 211.714 122.935 217.32 127.642 216.988C127.642 216.988 140.493 218.711 141.987 217.85C143.481 216.988 144.399 230.294 144.399 230.294L123.282 228.801L109.737 226.737C109.737 226.737 102.965 222.609 102.965 219.052C102.965 215.495 114.434 211.714 114.434 211.714Z" fill="#EDAD00"/>
<path d="M126.897 240.068C126.897 240.068 146.016 239.278 141.732 248.175C137.448 257.073 122.966 246.269 122.966 246.269L126.897 240.068Z" fill="#FBBEBE"/>
<path d="M107.672 221.116C107.672 221.116 123.165 209.533 120.987 195.428C118.81 181.322 107.672 206.21 107.672 206.21V221.116Z" fill="#5C5C8E"/>
<path d="M111.966 157.168C111.969 162.242 113.943 167.116 117.473 170.763C119.377 172.728 121.67 174.274 124.205 175.304C125.022 175.646 125.864 175.925 126.724 176.14C127.637 176.375 128.566 176.545 129.503 176.649C130.176 176.715 130.855 176.751 131.543 176.751C133.734 176.747 135.909 176.369 137.974 175.635C141.37 174.456 144.376 172.366 146.662 169.593C148.948 166.82 150.426 163.471 150.934 159.915C151.442 156.358 150.96 152.73 149.541 149.429C148.123 146.127 145.822 143.28 142.891 141.199C139.96 139.118 136.513 137.883 132.926 137.631C129.34 137.378 125.753 138.116 122.559 139.766C119.364 141.415 116.686 143.911 114.818 146.981C112.949 150.05 111.963 153.575 111.966 157.168Z" fill="#FBBEBE"/>
<path opacity="0.1" d="M37.645 246.478C39.3992 246.799 41.5665 247.39 41.5665 248.298C41.5665 249.826 66.0444 258.087 66.0444 258.087C66.0444 258.087 65.1265 260.222 67.5742 263.896C70.022 267.57 89.9256 288.667 89.9256 288.667L89.8593 289.289L89.6043 291.72L88.3906 303.343C88.3906 303.343 96.04 300.592 98.4877 300.897C99.2782 300.994 100.14 300.49 100.93 299.756C100.639 298.367 100.099 297.043 99.3343 295.847C99.3343 295.847 97.3505 294.288 94.3571 292.224V253.235L42.3722 240.618L37.6654 245.306C37.6336 245.696 37.6267 246.088 37.645 246.478Z" fill="black"/>
<path d="M35.4419 244.323C35.4419 244.323 41.5614 244.929 41.5614 246.463C41.5614 247.997 66.0392 256.252 66.0392 256.252C66.0392 256.252 65.1213 258.387 67.5691 262.062C70.0169 265.736 89.9204 286.833 89.9204 286.833L88.3906 301.509C88.3906 301.509 96.0399 298.757 98.4877 299.063C99.5841 299.2 100.793 298.186 101.792 297.024C102.621 296.045 103.36 294.993 104 293.88C104 293.88 101.241 282.251 104.918 279.5C108.595 276.748 100.941 256.568 100.941 256.568C100.941 256.568 97.478 242.218 98.4979 236.062C98.5628 235.652 98.6617 235.248 98.7937 234.855C98.7937 234.809 98.8191 234.763 98.8395 234.717C101.022 228.836 124.5 179.503 124.5 179.503C124.485 178.104 124.387 176.707 124.205 175.319C124.159 174.932 124.098 174.529 124.021 174.127C123.903 173.393 123.744 172.667 123.547 171.951C123.414 171.482 123.272 171.034 123.103 170.605C122.379 168.74 121.267 167.308 119.605 167.273C119.605 167.273 117.769 165.234 113.485 164.694C110.324 164.281 105.836 164.694 99.7167 167.273C85.3359 173.388 81.9702 173.694 81.9702 173.694L74.7391 183.157L73.25 185.103C67.8076 192.197 62.8807 199.672 58.5072 207.469C56.1002 211.79 52.6937 216.83 48.6089 219.857C40.3426 225.977 35.4419 244.323 35.4419 244.323Z" fill="#EDAD00"/>
<path opacity="0.1" d="M89.0789 208.962C89.0789 208.962 68.6501 214.007 60.7305 226.737L89.0789 208.962Z" fill="black"/>
<path opacity="0.1" d="M82.7658 231.323C82.7658 231.323 78.9054 257.241 79.9763 259.193C81.0472 261.144 82.7658 231.323 82.7658 231.323Z" fill="black"/>
<path opacity="0.1" d="M84.1476 244.628C85.6367 246.575 91.6695 261.603 91.6695 261.603L89.9254 286.833L88.3956 301.509C88.3956 301.509 96.0449 298.757 98.4978 299.063C99.5891 299.2 100.803 298.191 101.802 297.024C100.211 288.428 96.8149 270.444 96.1928 270.098C95.382 269.639 91.2513 255.187 91.032 251.172C90.8128 247.156 85.0605 238.106 85.0605 238.106C85.0605 238.106 82.6535 242.682 84.1476 244.628Z" fill="black"/>
<path opacity="0.1" d="M89.9255 219.857C90.2978 221.004 90.8893 227.654 90.8893 227.654C91.3075 233.519 95.7441 235.436 98.4979 236.047C98.5628 235.637 98.6617 235.233 98.7936 234.839C100.629 229.647 124.5 179.488 124.5 179.488C124.476 176.942 124.156 174.408 123.547 171.936C118.35 170.407 110.12 172.761 110.12 172.761C107.743 172.45 99.9869 187.865 99.9869 187.865C99.9869 187.865 94.816 199.673 94.2499 201.278C93.6839 202.883 94.2499 205.528 94.0205 206.445C93.791 207.362 91.3738 208.157 91.0321 209.426C90.6904 210.695 90.9148 213.202 90.6853 213.661C90.4559 214.119 89.5277 218.711 89.9255 219.857Z" fill="black"/>
<path d="M91.7613 218.94C92.1386 220.087 92.7251 226.737 92.7251 226.737C93.0718 231.619 96.2132 233.764 98.8445 234.702C100.026 235.123 101.263 235.371 102.516 235.436L106.208 238.636L123.246 251.197C123.246 251.197 129.6 239.477 127.876 239.4C126.153 239.324 116.214 230.992 116.214 230.992C113.154 229.371 110.125 223.949 108.712 221.167C108.796 220.832 108.857 220.491 108.896 220.148C109.513 214.955 122.364 195.076 122.364 195.076C122.364 195.076 127.331 189.231 129.268 178.402C129.325 178.158 129.36 177.893 129.406 177.643C129.461 177.306 129.495 176.965 129.508 176.624C129.738 172.46 126.709 170.947 123.108 170.585C121.238 170.44 119.357 170.498 117.499 170.758C115.64 170.99 113.8 171.351 111.991 171.839C110.461 171.64 106.657 178.035 104.168 182.566C102.827 185.022 101.863 186.943 101.863 186.943C101.863 186.943 96.667 198.755 96.0857 200.36C95.5043 201.966 96.0857 204.605 95.8562 205.528C95.6267 206.45 93.2095 207.24 92.873 208.509C92.5364 209.778 92.7506 212.285 92.5211 212.743C92.2916 213.202 91.3737 217.794 91.7613 218.94Z" fill="#EDAD00"/>
<path opacity="0.1" d="M71.9905 192.503C75.2236 195.825 80.4965 195.835 84.7088 194.149C88.921 192.462 92.4958 189.384 96.4071 187.014C98.9569 185.485 101.629 184.196 104.128 182.601C104.495 182.362 104.852 182.122 105.199 181.878C108.085 179.839 110.579 177.225 113.562 175.355C115.561 174.033 117.887 173.289 120.283 173.204C121.389 173.193 122.483 173.423 123.491 173.877C123.667 173.953 123.837 174.042 124.001 174.142C124.981 174.709 125.889 175.394 126.704 176.18C127.545 176.94 128.356 177.75 129.253 178.453C129.309 178.209 129.345 177.944 129.391 177.694C129.446 177.357 129.48 177.016 129.493 176.675C130.166 176.741 130.844 176.777 131.533 176.777C133.729 176.765 135.907 176.379 137.974 175.635C137.974 175.554 138.004 175.467 138.02 175.385C138.754 171.533 140.059 167.451 143.18 165.285C144.98 164.027 147.857 163.517 150.345 162.559C151.208 159.555 151.339 156.387 150.725 153.322C150.112 150.257 148.773 147.383 146.82 144.941C144.867 142.499 142.357 140.561 139.5 139.288C136.643 138.014 133.522 137.443 130.399 137.623C127.276 137.802 124.242 138.727 121.55 140.319C118.858 141.911 116.587 144.124 114.926 146.773C113.266 149.423 112.265 152.431 112.008 155.546C111.75 158.661 112.243 161.793 113.445 164.679C110.283 164.266 105.795 164.679 99.676 167.257C85.2952 173.373 81.9295 173.678 81.9295 173.678L74.7391 183.157C75.5194 184.349 76.4016 185.526 76.4832 186.917C76.6464 189.496 74.1578 191.274 71.9905 192.503Z" fill="black"/>
<path d="M143.206 163.456C140.1 165.627 138.779 169.703 138.045 173.551C137.816 174.753 137.596 176.022 136.862 176.975C135.215 179.11 131.9 178.504 129.748 176.975C127.596 175.447 125.903 173.123 123.501 172.037C120.309 170.6 116.561 171.65 113.577 173.52C110.594 175.39 108.095 178.005 105.209 180.038C102.42 182.005 99.3088 183.406 96.4021 185.175C92.4958 187.554 88.9261 190.627 84.7088 192.309C80.4915 193.991 75.2236 193.991 71.9956 190.668C74.1629 189.465 76.6515 187.687 76.4832 185.113C76.3149 182.54 73.3113 180.609 73.5153 177.979C73.7193 175.35 76.8249 174.3 79.0534 173.006C83.7195 170.295 85.6828 164.343 86.7027 158.839C87.4779 154.543 88.1153 149.738 91.3331 146.981C93.4035 145.202 96.2134 144.621 98.2991 142.863C100.278 141.192 101.359 138.659 102.624 136.33C104.699 132.442 107.422 128.834 111.028 126.511C114.633 124.187 119.217 123.29 123.175 124.854C124.705 125.451 126.071 126.383 127.571 127.03C131.293 128.641 135.562 128.427 139.254 130.119C143.797 132.208 146.75 136.825 149.453 141.207C151.763 144.953 156.281 151.582 155.016 156.424C153.726 161.361 146.577 161.097 143.206 163.456Z" fill="#7C5C5C"/>
<g opacity="0.1">
<path opacity="0.1" d="M73.5151 177.658C73.5317 177.457 73.5675 177.257 73.6222 177.062C74.4433 178.356 75.4683 179.61 75.5652 181.139C75.5886 181.489 75.5594 181.841 75.4785 182.183C74.5656 180.716 73.3877 179.345 73.5151 177.658Z" fill="black"/>
<path opacity="0.1" d="M83.7908 188.329C88.0081 186.637 91.5778 183.564 95.484 181.195C98.3908 179.427 101.502 178.025 104.291 176.058C107.177 174.02 109.676 171.406 112.659 169.541C115.643 167.675 119.391 166.621 122.583 168.058C124.985 169.143 126.663 171.441 128.83 172.996C130.997 174.55 134.297 175.156 135.944 173.021C136.683 172.068 136.898 170.804 137.127 169.602C137.861 165.749 139.167 161.672 142.288 159.502C145.664 157.147 152.808 157.412 154.103 152.444C154.319 151.562 154.376 150.649 154.272 149.748C155.103 151.955 155.526 154.176 155.026 156.113C153.726 161.081 146.582 160.816 143.206 163.171C140.105 165.341 138.779 169.418 138.045 173.271C137.815 174.473 137.601 175.742 136.867 176.69C135.215 178.825 131.9 178.219 129.728 176.665C127.555 175.11 125.882 172.812 123.481 171.727C120.288 170.29 116.54 171.344 113.557 173.21C110.574 175.075 108.075 177.694 105.188 179.727C102.399 181.699 99.2883 183.096 96.3816 184.864C92.4753 187.249 88.9056 190.316 84.6883 191.998C80.471 193.68 75.2031 193.675 71.9751 190.352C72.8092 189.901 73.6011 189.375 74.3413 188.783C77.2888 189.858 80.8075 189.522 83.7908 188.329Z" fill="black"/>
</g>
<path d="M415.899 138.303L394.991 117.292C393.966 116.245 392.744 115.411 391.394 114.838C390.045 114.265 388.595 113.965 387.13 113.955C385.664 113.946 384.21 114.226 382.853 114.78C381.496 115.335 380.262 116.152 379.223 117.185L247.93 247.273L192.416 191.366C190.355 189.277 187.548 188.091 184.612 188.07C181.676 188.049 178.852 189.195 176.761 191.254L155.628 212.147C153.54 214.231 152.357 217.054 152.337 220.004C152.317 222.953 153.461 225.791 155.521 227.904L239.827 312.812C241.912 314.899 244.736 316.082 247.688 316.103C250.639 316.124 253.48 314.981 255.595 312.924L415.782 154.054C416.83 153.031 417.665 151.81 418.238 150.462C418.812 149.115 419.113 147.667 419.124 146.203C419.135 144.738 418.855 143.286 418.302 141.931C417.749 140.575 416.932 139.342 415.899 138.303Z" fill="#3ACC6C"/>
<g opacity="0.5">
<path opacity="0.5" d="M384.394 306.778C384.394 306.778 368.8 305.84 370.625 316.761C370.532 317.314 370.615 317.884 370.864 318.387C371.114 318.89 371.515 319.302 372.013 319.564C372.013 319.564 372.013 318.753 373.609 319.029C374.169 319.124 374.74 319.152 375.307 319.11C376.072 319.06 376.799 318.761 377.377 318.259C377.377 318.259 381.758 316.45 383.466 309.285C383.466 309.285 384.726 307.726 384.675 307.323L382.043 308.449C382.043 308.449 382.946 310.345 382.237 311.92C382.237 311.92 382.15 308.516 381.646 308.597C381.544 308.597 380.279 309.255 380.279 309.255C380.279 309.255 381.809 312.557 380.656 314.962C380.656 314.962 381.1 310.885 379.794 309.494L377.943 310.574C377.943 310.574 379.749 313.989 378.525 316.771C378.525 316.771 378.841 312.501 377.551 310.839L375.873 312.144C375.873 312.144 377.571 315.507 376.536 317.821C376.536 317.821 376.403 312.847 375.516 312.47C375.516 312.47 374.047 313.764 373.823 314.3C373.823 314.3 374.986 316.74 374.267 318.03C374.267 318.03 373.823 314.712 373.461 314.702C373.461 314.702 371.997 316.893 371.844 318.397C371.915 317.006 372.349 315.658 373.104 314.488C372.26 314.65 371.482 315.053 370.865 315.65C370.865 315.65 371.09 314.121 373.466 313.958C373.466 313.958 374.674 312.297 374.996 312.195C374.996 312.195 372.635 311.996 371.202 312.633C371.202 312.633 372.461 311.166 375.424 311.833L377.081 310.483C377.081 310.483 373.976 310.055 372.655 310.523C372.655 310.523 374.185 309.229 377.53 310.172L379.335 309.097C379.335 309.097 376.684 308.526 375.103 308.73C375.103 308.73 376.77 307.833 379.866 308.806L381.156 308.225C381.156 308.225 379.213 307.843 378.642 307.787C378.071 307.731 378.045 307.568 378.045 307.568C379.275 307.365 380.537 307.506 381.691 307.975C381.691 307.975 384.44 306.951 384.394 306.778Z" fill="#EDAD00"/>
</g>
<g opacity="0.5">
<path opacity="0.5" d="M356.413 230.513C356.413 230.513 348.493 243.971 359.07 247.294C359.521 247.629 360.067 247.813 360.629 247.82C361.191 247.828 361.741 247.658 362.201 247.334C362.201 247.334 361.492 246.942 362.446 245.668C362.784 245.212 363.069 244.717 363.292 244.195C363.59 243.49 363.653 242.707 363.471 241.963C363.471 241.963 363.843 237.239 358.234 232.47C358.234 232.47 357.413 230.635 357.035 230.498L356.841 233.351C356.841 233.351 358.937 233.412 360.024 234.758C360.024 234.758 356.964 233.29 356.79 233.774C356.76 233.876 356.755 235.303 356.755 235.303C356.755 235.303 360.406 235.425 362.018 237.555C362.018 237.555 358.591 235.313 356.75 235.843L356.872 237.983C356.872 237.983 360.738 237.922 362.665 240.277C362.665 240.277 358.999 238.055 356.933 238.447L357.336 240.536C357.336 240.536 361.11 240.536 362.696 242.519C362.696 242.519 358.203 240.384 357.464 240.99C357.464 240.99 357.974 242.886 358.32 243.329C358.32 243.329 361.028 243.4 361.849 244.628C361.849 244.628 358.693 243.518 358.514 243.833C358.514 243.833 359.809 246.132 361.064 246.952C359.857 246.256 358.853 245.257 358.152 244.053C357.9 244.883 357.9 245.77 358.152 246.601C358.152 246.601 356.872 245.693 357.831 243.543C357.831 243.543 356.892 241.714 356.949 241.377C356.949 241.377 355.704 243.39 355.618 244.944C355.618 244.944 354.883 243.156 356.821 240.817L356.372 238.727C356.372 238.727 354.582 241.306 354.399 242.692C354.399 242.692 353.935 240.75 356.301 238.192L356.158 236.098C356.158 236.098 354.445 238.197 353.914 239.696C353.914 239.696 353.868 237.805 356.138 235.492L356.209 234.08C356.209 234.08 354.985 235.639 354.679 236.118C354.373 236.597 354.215 236.551 354.215 236.551C354.59 235.365 355.287 234.307 356.229 233.494C356.229 233.494 356.586 230.549 356.413 230.513Z" fill="#EDAD00"/>
</g>
<g opacity="0.5">
<path opacity="0.5" d="M306.881 123.137C306.881 123.137 298.966 136.601 309.538 139.918C309.988 140.254 310.534 140.44 311.097 140.447C311.659 140.454 312.21 140.283 312.669 139.959C312.669 139.959 311.96 139.566 312.919 138.292C313.256 137.836 313.538 137.342 313.76 136.82C314.06 136.115 314.123 135.331 313.939 134.588C313.939 134.588 314.316 129.864 308.701 125.094C308.701 125.094 307.88 123.265 307.503 123.127L307.309 125.976C307.309 125.976 309.41 126.037 310.491 127.382C310.491 127.382 307.432 125.914 307.263 126.399C307.228 126.5 307.228 127.927 307.228 127.927C307.228 127.927 310.874 128.05 312.485 130.18C312.485 130.18 309.058 127.937 307.217 128.467L307.345 130.608C307.345 130.608 311.205 130.547 313.133 132.901C313.133 132.901 309.466 130.684 307.401 131.071L307.804 133.161C307.804 133.161 311.578 133.161 313.169 135.148C313.169 135.148 308.671 133.008 307.931 133.619C307.931 133.619 308.441 135.51 308.793 135.953C308.793 135.953 311.496 136.025 312.317 137.253C312.317 137.253 309.16 136.142 308.987 136.458C308.987 136.458 310.277 138.761 311.537 139.577C310.328 138.883 309.323 137.885 308.62 136.682C308.376 137.503 308.376 138.378 308.62 139.199C308.62 139.199 307.34 138.292 308.299 136.116C308.299 136.116 307.36 134.287 307.416 133.951C307.416 133.951 306.172 135.964 306.085 137.518C306.085 137.518 305.351 135.729 307.294 133.39L306.84 131.301C306.84 131.301 305.05 133.879 304.872 135.265C304.872 135.265 304.402 133.324 306.769 130.766L306.626 128.671C306.626 128.671 304.912 130.771 304.382 132.269C304.382 132.269 304.336 130.378 306.605 128.07L306.677 126.653C306.677 126.653 305.453 128.213 305.147 128.692C304.841 129.171 304.683 129.125 304.683 129.125C305.066 127.936 305.772 126.878 306.723 126.067C306.723 126.067 307.054 123.198 306.881 123.137Z" fill="#EDAD00"/>
</g>
<g opacity="0.5">
<path opacity="0.5" d="M136.372 21.1735C136.372 21.1735 106.897 42.5762 126.408 59.5303C126.408 59.5303 128.616 63.5458 133.068 62.5317C133.068 62.5317 131.915 61.0336 135.153 59.199C136.301 58.54 137.366 57.7462 138.325 56.8345C139.623 55.6134 140.487 54.0036 140.788 52.2482C140.788 52.2482 146 42.4947 138.448 27.0745C138.448 27.0745 138.402 22.3914 137.713 21.7442L134.654 27.6656C134.654 27.6656 139.085 29.7499 140.151 33.638C140.151 33.638 134.944 27.63 134.154 28.5421C133.996 28.7205 132.665 31.7525 132.665 31.7525C132.665 31.7525 140.36 35.4114 141.819 41.4653C141.819 41.4653 136.576 33.4749 132.129 32.894L130.401 37.5873C130.401 37.5873 138.718 41.0576 140.646 47.8861C140.646 47.8861 134.873 39.7327 130.09 38.6371L129.009 43.4833C129.009 43.4833 137.056 47.0249 138.621 52.7171C138.621 52.7171 130.972 43.9623 128.835 44.6095C128.835 44.6095 128.111 49.1143 128.493 50.4035C128.493 50.4035 134.215 53.0789 134.827 56.4676C134.827 56.4676 129.111 51.1577 128.437 51.6673C128.437 51.6673 129.06 57.7824 131.018 60.7227C131.018 60.7227 127.81 56.6001 127.484 51.8151C127.484 51.8151 125.296 54.363 125.174 57.2218C125.174 57.2218 123.277 54.0879 127.351 50.3271C127.351 50.3271 127.061 45.5369 127.494 44.8745C127.494 44.8745 122.945 48.0186 121.308 51.28C121.308 51.28 121.405 46.7752 127.734 43.5801L128.713 38.6931C128.713 38.6931 122.486 42.5304 120.808 45.3178C120.808 45.3178 121.619 40.7315 129.06 37.4599L130.712 32.8482C130.712 32.8482 125.102 35.7477 122.552 38.4536C122.552 38.4536 124.22 34.3769 131.222 31.5385L132.685 28.5829C132.685 28.5829 128.606 30.7741 127.509 31.5079C126.413 32.2418 126.107 32.0175 126.107 32.0175C128.017 29.8258 130.5 28.2079 133.277 27.3446C133.277 27.3446 136.714 21.413 136.372 21.1735Z" fill="#EDAD00"/>
</g>
<g opacity="0.5">
<path opacity="0.5" d="M107.738 91.7975C107.738 91.7975 69.6089 75.776 64.6113 104.665C64.6113 104.665 62.0055 109.169 65.6313 112.889C65.6313 112.889 66.4115 110.892 70.0985 112.956C71.4135 113.682 72.8104 114.25 74.2597 114.648C76.217 115.187 78.2967 115.076 80.1854 114.332C80.1854 114.332 92.7201 113.654 103.271 97.2603C103.271 97.2603 107.789 94.4678 108.019 93.418L100.456 93.9276C100.456 93.9276 101.037 99.4567 97.9063 102.774C97.9063 102.774 100.686 94.1926 99.3495 93.9531C99.0792 93.9021 95.3566 94.3913 95.3566 94.3913C95.3566 94.3913 96.3204 104.007 91.2769 108.981C91.2769 108.981 95.9583 99.2018 93.9185 94.5646L88.3447 95.6398C88.3447 95.6398 89.8745 105.755 84.3568 111.636C84.3568 111.636 88.8903 101.24 87.1412 95.9609L81.7968 97.7546C81.7968 97.7546 83.087 107.646 78.4719 112.533C78.4719 112.533 82.5006 99.9917 80.6036 98.2642C80.6036 98.2642 75.7998 100.211 74.7697 101.322C74.7697 101.322 75.5346 108.456 72.5973 111.029C72.5973 111.029 74.4025 102.366 73.5101 102.01C73.5101 102.01 67.9261 106.209 66.2228 109.832C66.2228 109.832 68.3493 104.298 72.8063 101.169C72.8063 101.169 69.0633 100.532 66.1769 102.101C66.1769 102.101 68.1096 98.4273 74.1577 100.17C74.1577 100.17 78.6402 97.0667 79.5377 97.1125C79.5377 97.1125 73.816 94.5646 69.6803 94.8805C69.6803 94.8805 74.1118 92.3326 80.935 96.5877L86.2539 94.6614C86.2539 94.6614 78.8646 90.8752 75.1572 90.8904C75.1572 90.8904 80.0834 88.9846 87.6409 94.2843L93.0975 93.1581C93.0975 93.1581 86.978 89.4126 82.8474 88.5463C82.8474 88.5463 87.799 87.7616 94.6681 92.9033L98.401 92.5925C98.401 92.5925 93.8828 89.9324 92.5161 89.2852C91.1494 88.6381 91.2106 88.2202 91.2106 88.2202C94.4635 88.7846 97.4951 90.2419 99.9666 92.4294C99.9666 92.4294 107.703 92.2714 107.738 91.7975Z" fill="#EDAD00"/>
</g>
<g opacity="0.5">
<path opacity="0.5" d="M84.9075 51.3463C84.9075 51.3463 71.3885 20.1237 51.9541 34.4432C51.9541 34.4432 47.8388 35.6357 47.8745 39.8958C47.8745 39.8958 49.4758 39.1518 50.4855 42.4794C50.8619 43.6581 51.3754 44.7886 52.0153 45.8478C52.8696 47.2839 54.1695 48.4021 55.7176 49.0328C55.7176 49.0328 63.5505 55.7695 79.1756 52.0343C79.1756 52.0343 83.4541 52.9464 84.1884 52.4572L79.4102 48.4467C79.4102 48.4467 76.6054 52.0648 72.8419 52.2381C72.8419 52.2381 79.3847 48.7219 78.7268 47.8199C78.5942 47.6365 76.1056 45.8122 76.1056 45.8122C76.1056 45.8122 71.1948 52.0699 65.3966 52.1667C65.3966 52.1667 73.7547 49.0175 75.1826 45.1089L71.256 42.561C71.256 42.561 66.3247 49.4557 59.7004 49.8175C59.7004 49.8175 68.3186 46.2249 70.2921 42.0871L66.0952 40.1353C66.0952 40.1353 61.22 46.76 55.7074 47.0097C55.7074 47.0097 65.2487 41.8526 65.1008 39.748C65.1008 39.748 61.1384 38.1683 59.8839 38.26C59.8839 38.26 56.2786 42.9228 53.0607 42.7903C53.0607 42.7903 59.0731 38.6677 58.7417 37.9492C58.7417 37.9492 53.0301 37.2663 49.9551 38.4588C49.9551 38.4588 54.3713 36.3797 58.8028 37.0625C58.8028 37.0625 56.9415 34.5502 54.3407 33.8521C54.3407 33.8521 57.5892 32.7667 60.1848 37.2409C60.1848 37.2409 64.6163 37.9543 65.1314 38.4843C65.1314 38.4843 63.1936 33.6992 60.5418 31.5436C60.5418 31.5436 64.6214 32.5628 66.2584 38.9684L70.5165 40.8589C70.5165 40.8589 68.288 34.3974 66.0748 32.3029C66.0748 32.3029 70.0882 33.9744 71.5568 41.4246L75.4274 43.8655C75.4274 43.8655 73.9281 38.1581 71.975 35.2891C71.975 35.2891 75.3611 37.6434 76.5136 44.6095L78.9104 46.546C78.9104 46.546 77.7375 42.3979 77.2938 41.236C76.8502 40.0742 77.1306 39.8602 77.1306 39.8602C78.7392 42.0465 79.7084 44.6364 79.9303 47.3409C79.9303 47.3409 84.6219 51.6164 84.9075 51.3463Z" fill="#EDAD00"/>
</g>
<g opacity="0.5">
<path opacity="0.5" d="M348.391 67.592C348.391 67.592 345.204 52.3043 335.132 56.9467C334.572 57.0002 334.043 57.2298 333.622 57.6024C333.2 57.9751 332.908 58.4716 332.787 59.0207C332.787 59.0207 333.577 58.8322 333.725 60.4221C333.781 60.9863 333.902 61.5421 334.087 62.0782C334.342 62.8013 334.823 63.4231 335.459 63.8516C335.459 63.8516 338.355 67.6022 345.714 67.3678C345.714 67.3678 347.555 68.1729 347.932 68.0201L346.153 65.7779C346.153 65.7779 344.556 67.1436 342.853 66.8735C342.853 66.8735 346.117 65.9002 345.913 65.4313C345.867 65.3345 344.918 64.2848 344.918 64.2848C344.918 64.2848 342.134 66.6442 339.508 66.1499C339.508 66.1499 343.552 65.5078 344.562 63.8822L343.032 62.3789C343.032 62.3789 340.206 65.0186 337.198 64.565C337.198 64.565 341.405 63.7497 342.675 62.0732L340.971 60.7992C340.971 60.7992 338.167 63.3165 335.663 62.9242C335.663 62.9242 340.431 61.4871 340.558 60.5291C340.558 60.5291 338.926 59.4539 338.35 59.3774C338.35 59.3774 336.31 61.1406 334.867 60.7839C334.867 60.7839 337.927 59.4895 337.871 59.1328C337.871 59.1328 335.367 58.2971 333.873 58.5468C335.234 58.2519 336.649 58.3169 337.978 58.7353C337.603 57.9628 337.009 57.3177 336.27 56.8804C336.27 56.8804 337.83 56.6919 338.585 58.9188C338.585 58.9188 340.507 59.6475 340.691 59.938C340.691 59.938 340.263 57.6091 339.273 56.3708C339.273 56.3708 341.017 57.2015 341.155 60.2386L342.894 61.482C342.894 61.482 342.491 58.3735 341.69 57.2219C341.69 57.2219 343.338 58.3481 343.307 61.8082L344.837 63.2656C344.837 63.2656 344.694 60.5597 344.082 59.0921C344.082 59.0921 345.383 60.4628 345.255 63.6784L346.153 64.774C346.153 64.774 346.015 62.8019 345.923 62.226C345.831 61.6502 345.974 61.589 345.974 61.589C346.495 62.7228 346.691 63.9788 346.54 65.2173C346.54 65.2173 348.238 67.6837 348.391 67.592Z" fill="#EDAD00"/>
</g>
<g opacity="0.5">
<path opacity="0.5" d="M293.51 350.985C293.51 350.985 290.328 335.697 280.251 340.34C279.69 340.393 279.161 340.622 278.738 340.995C278.316 341.367 278.023 341.864 277.9 342.414C277.9 342.414 278.691 342.225 278.838 343.815C278.894 344.38 279.017 344.936 279.206 345.471C279.459 346.193 279.938 346.815 280.572 347.244C280.572 347.244 283.469 350.995 290.833 350.761C290.833 350.761 292.674 351.566 293.046 351.413L291.271 349.171C291.271 349.171 289.675 350.536 287.967 350.266C287.967 350.266 291.23 349.293 291.026 348.824C290.986 348.727 290.032 347.678 290.032 347.678C290.032 347.678 287.248 350.037 284.621 349.543C284.621 349.543 288.67 348.901 289.675 347.275L288.145 345.746C288.145 345.746 285.351 348.396 282.332 347.927C282.332 347.927 286.539 347.112 287.809 345.435L286.105 344.161C286.105 344.161 283.306 346.679 280.802 346.286C280.802 346.286 285.57 344.854 285.697 343.891C285.697 343.891 284.06 342.816 283.489 342.74C283.489 342.74 281.449 344.503 280.001 344.146C280.001 344.146 283.061 342.852 283.005 342.495C283.005 342.495 280.501 341.659 279.007 341.909C280.37 341.614 281.787 341.679 283.117 342.098C282.74 341.326 282.147 340.682 281.409 340.243C281.409 340.243 282.964 340.054 283.719 342.281C283.719 342.281 285.646 343.01 285.83 343.3C285.83 343.3 285.402 340.971 284.412 339.733C284.412 339.733 286.156 340.564 286.289 343.601L288.033 344.844C288.033 344.844 287.625 341.736 286.824 340.584C286.824 340.584 288.477 341.71 288.446 345.17L289.976 346.628C289.976 346.628 289.833 343.922 289.216 342.454C289.216 342.454 290.522 343.825 290.394 347.041L291.292 348.136C291.292 348.136 291.149 346.164 291.057 345.588C290.965 345.012 291.108 344.956 291.108 344.956C291.63 346.088 291.826 347.343 291.674 348.58C291.674 348.58 293.367 351.061 293.51 350.985Z" fill="#EDAD00"/>
</g>
</g>
<defs>
<linearGradient id="paint0_linear" x1="27786" y1="141435" x2="27786" y2="62344.9" gradientUnits="userSpaceOnUse">
<stop stop-color="#808080" stop-opacity="0.25"/>
<stop offset="0.54" stop-color="#808080" stop-opacity="0.12"/>
<stop offset="1" stop-color="#808080" stop-opacity="0.1"/>
</linearGradient>
<clipPath id="clip0">
<rect width="586" height="385" fill="white"/>
</clipPath>
</defs>
</svg>
